<?xml version="1.0" encoding="utf-8"?>
<!-- Generator: Adobe Illustrator 25.4.1, SVG Export Plug-In . SVG Version: 6.00 Build 0)  -->
<svg version="1.1" id="Capa_1" xmlns="http://www.w3.org/2000/svg" xmlns:xlink="http://www.w3.org/1999/xlink" x="0px" y="0px"
	 viewBox="0 0 34.6 34.6" style="enable-background:new 0 0 34.6 34.6;" xml:space="preserve">
<style type="text/css">
	.st0{fill:#E8E6DC;}
	.st1{fill:#605540;}
	.st2{fill:#4F3527;}
	.st3{fill:none;stroke:#B7A07E;stroke-width:2.1411;stroke-linecap:round;stroke-linejoin:round;stroke-miterlimit:10;}
	.st4{clip-path:url(#SVGID_00000124132131364564755690000008338008437526247813_);}
	.st5{fill:none;stroke:#CCC0AA;stroke-width:1.4274;stroke-linecap:round;stroke-linejoin:round;stroke-miterlimit:10;}
	.st6{fill:#EAC113;}
	.st7{fill:none;stroke:#605540;stroke-width:2;stroke-miterlimit:10;}
	.st8{fill:none;stroke:#605540;stroke-width:1.5;stroke-linecap:round;stroke-linejoin:round;stroke-miterlimit:10;}
	.st9{fill:none;stroke:#605540;stroke-width:1.5;stroke-miterlimit:10;}
	.st10{clip-path:url(#SVGID_00000065063404731625476440000015730709643335518361_);}
	.st11{clip-path:url(#SVGID_00000042721854933850734660000014791702751299064743_);}
	.st12{clip-path:url(#XMLID_00000057149082512194591470000003712454688855764365_);fill:#605540;}
	.st13{clip-path:url(#SVGID_00000016791757900140172310000006027250745549630897_);}
	.st14{clip-path:url(#SVGID_00000157294985577952229630000016675236717220579475_);}
	.st15{clip-path:url(#SVGID_00000112621033948862973470000002925243014049408649_);}
	.st16{clip-path:url(#SVGID_00000022535768115222518600000010417467593896809351_);}
	.st17{fill:#CCC0AA;}
	.st18{fill:none;stroke:#605540;stroke-width:0.75;stroke-miterlimit:10;}
	.st19{fill:none;stroke:#605540;stroke-width:3;stroke-miterlimit:10;}
	.st20{fill:#6E4C3D;}
	.st21{fill:#FFFFFF;}
	.st22{clip-path:url(#SVGID_00000106131253626404304750000012393031361303547790_);}
	.st23{clip-path:url(#SVGID_00000160882820718063725530000001404905305072604051_);}
</style>
<g>
	<path class="st2" d="M18.3,34.3c-0.7,0-1.3,0-2,0c-0.1,0-0.2,0-0.3-0.1c-1.8-0.1-3.5-0.5-5.2-1.2c-5.7-2.5-9.1-6.7-10.3-12.8
		c-0.1-0.6-0.2-1.3-0.3-2c0-0.7,0-1.3,0-2c0-0.1,0.1-0.2,0.1-0.3c0.1-1.7,0.5-3.4,1.1-5C4.8,2.7,14.2-1.7,22.7,1.2
		c9.3,3.1,14,13.2,10.4,22.3c-2.3,5.9-6.7,9.4-12.9,10.6C19.6,34.2,18.9,34.2,18.3,34.3z M17.3,32C25.4,32,32,25.4,32,17.3
		c0-8.1-6.6-14.7-14.7-14.7C9.2,2.6,2.6,9.2,2.6,17.3C2.6,25.4,9.2,32,17.3,32z"/>
	<path class="st2" d="M21.1,17.3c-0.1-0.1-0.2-0.2-0.3-0.2c-2-2-4.1-4.1-6.1-6.1c-0.2-0.2-0.4-0.4-0.5-0.7C14,9.8,14.2,9.3,14.6,9
		c0.4-0.3,0.9-0.3,1.2,0c0.1,0.1,0.2,0.2,0.3,0.3c2.4,2.4,4.8,4.8,7.1,7.1c0.7,0.7,0.7,1.2,0,1.9c-2.3,2.3-4.7,4.7-7,7
		c-0.4,0.4-0.9,0.5-1.4,0.3c-0.4-0.1-0.7-0.4-0.8-0.9c-0.1-0.4,0.1-0.8,0.4-1c0.7-0.7,1.4-1.4,2.1-2.1
		C18.1,20.3,19.5,18.8,21.1,17.3z"/>
</g>
</svg>
