<?xml version="1.0" encoding="utf-8"?>
<!-- Generator: Adobe Illustrator 26.4.1, SVG Export Plug-In . SVG Version: 6.00 Build 0)  -->
<svg version="1.1" id="Capa_1" xmlns="http://www.w3.org/2000/svg" xmlns:xlink="http://www.w3.org/1999/xlink" x="0px" y="0px"
	 viewBox="0 0 63 62" style="enable-background:new 0 0 63 62;" xml:space="preserve">
<style type="text/css">
	.st0{fill:#6E4C3D;}
</style>
<path class="st0" d="M32.5,2.6C16.9,2.6,4.2,15.3,4.2,30.9s12.7,28.3,28.3,28.3s28.3-12.7,28.3-28.3S48.1,2.6,32.5,2.6z M24.2,27.8
	V44H17V29v-5.4h7.2V27.8z M20.6,20.5c-2,0-3.6-1.6-3.6-3.6s1.6-3.6,3.6-3.6s3.6,1.6,3.6,3.6S22.6,20.5,20.6,20.5z M47.7,32.8V44
	h-6.1V34c0-2.4-0.3-5.4-3.5-5.4c-3.3,0-3.8,2.6-3.8,5.3V44h-6V27.5v-3.9H34v2.8h0.1c0.8-1.6,2.9-2.8,6-2.8c5.2,0,7,2.4,7.5,6.3
	C47.7,30.7,47.7,31.7,47.7,32.8L47.7,32.8z"/>
</svg>
