<?xml version="1.0" encoding="utf-8"?>
<!-- Generator: Adobe Illustrator 25.4.1, SVG Export Plug-In . SVG Version: 6.00 Build 0)  -->
<svg version="1.1" id="Capa_1" xmlns="http://www.w3.org/2000/svg" xmlns:xlink="http://www.w3.org/1999/xlink" x="0px" y="0px"
	 viewBox="0 0 34.6 34.6" style="enable-background:new 0 0 34.6 34.6;" xml:space="preserve">
<style type="text/css">
	.st0{fill:#E8E6DC;}
	.st1{fill:#605540;}
	.st2{fill:#4F3527;}
	.st3{fill:none;stroke:#B7A07E;stroke-width:2.1411;stroke-linecap:round;stroke-linejoin:round;stroke-miterlimit:10;}
	.st4{clip-path:url(#SVGID_00000022529505016480554520000002170725244549919105_);}
	.st5{fill:none;stroke:#CCC0AA;stroke-width:1.4274;stroke-linecap:round;stroke-linejoin:round;stroke-miterlimit:10;}
	.st6{fill:#EAC113;}
	.st7{fill:none;stroke:#605540;stroke-width:2;stroke-miterlimit:10;}
	.st8{fill:none;stroke:#605540;stroke-width:1.5;stroke-linecap:round;stroke-linejoin:round;stroke-miterlimit:10;}
	.st9{fill:none;stroke:#605540;stroke-width:1.5;stroke-miterlimit:10;}
	.st10{clip-path:url(#SVGID_00000054964925047974859510000011158799070657351838_);}
	.st11{clip-path:url(#SVGID_00000029737539879150733900000010321928295541839003_);}
	.st12{clip-path:url(#XMLID_00000004519475154348559070000008817560544467905208_);fill:#605540;}
	.st13{clip-path:url(#SVGID_00000062156492666937176130000007131279092816137385_);}
	.st14{clip-path:url(#SVGID_00000145753253983593013530000000729964891341921211_);}
	.st15{clip-path:url(#SVGID_00000139253559641522540990000010733558431890793375_);}
	.st16{clip-path:url(#SVGID_00000115504852545138735230000008127832387646900408_);}
	.st17{fill:#CCC0AA;}
	.st18{fill:none;stroke:#605540;stroke-width:0.75;stroke-miterlimit:10;}
	.st19{fill:none;stroke:#605540;stroke-width:3;stroke-miterlimit:10;}
	.st20{fill:#6E4C3D;}
	.st21{fill:#FFFFFF;}
	.st22{clip-path:url(#SVGID_00000029728331270615513650000006403929802903713454_);}
	.st23{clip-path:url(#SVGID_00000040572612851259966070000013388791322712763826_);}
</style>
<g>
	<path class="st2" d="M16.3,0.3c0.7,0,1.3,0,2,0c0.1,0,0.2,0,0.3,0.1c1.8,0.1,3.5,0.5,5.2,1.2C29.4,4,32.8,8.3,34,14.3
		c0.1,0.6,0.2,1.3,0.3,2c0,0.7,0,1.3,0,2c0,0.1-0.1,0.2-0.1,0.3c-0.1,1.7-0.5,3.4-1.1,5c-3.3,8.3-12.7,12.7-21.2,9.8
		c-9.3-3.1-14-13.2-10.4-22.3C3.8,5.3,8.2,1.8,14.4,0.6C15,0.4,15.7,0.4,16.3,0.3z M17.3,2.6C9.2,2.6,2.6,9.2,2.6,17.3
		C2.6,25.5,9.2,32,17.3,32C25.4,32,32,25.5,32,17.3C32,9.2,25.4,2.6,17.3,2.6z"/>
	<path class="st2" d="M13.5,17.3c0.1,0.1,0.2,0.2,0.3,0.2c2,2,4.1,4.1,6.1,6.1c0.2,0.2,0.4,0.4,0.5,0.7c0.2,0.4-0.1,0.9-0.5,1.2
		c-0.4,0.3-0.9,0.3-1.2,0c-0.1-0.1-0.2-0.2-0.3-0.3c-2.4-2.4-4.8-4.8-7.1-7.1c-0.7-0.7-0.7-1.2,0-1.9c2.3-2.3,4.7-4.7,7-7
		c0.4-0.4,0.9-0.5,1.4-0.3c0.4,0.1,0.7,0.4,0.8,0.9c0.1,0.4-0.1,0.8-0.4,1c-0.7,0.7-1.4,1.4-2.1,2.1C16.5,14.3,15.1,15.8,13.5,17.3z
		"/>
</g>
</svg>
