<?xml version="1.0" encoding="utf-8"?>
<!-- Generator: Adobe Illustrator 26.4.1, SVG Export Plug-In . SVG Version: 6.00 Build 0)  -->
<svg version="1.1" id="Capa_1" xmlns="http://www.w3.org/2000/svg" xmlns:xlink="http://www.w3.org/1999/xlink" x="0px" y="0px"
	 viewBox="0 0 50 50" style="enable-background:new 0 0 50 50;" xml:space="preserve">
<style type="text/css">
	.st0{fill:#563221;}
</style>
<g>
	<path class="st0" d="M3.5,4.8C3.7,4.3,4.2,4,4.8,4.1c1,0,1.9,0,2.9,0c2.1,0,3.8,1.2,4.5,3.2c0.3,0.7,0.5,1.5,0.7,2.2
		c0.1,0.3,0.2,0.4,0.5,0.4c3.2,0,6.4,0.1,9.6,0.1c7.4,0.1,14.8,0.2,22.2,0.3c0.3,0,0.7,0.1,1,0.3c0.2,0.2,0.4,0.6,0.3,0.8
		c-0.8,3.5-1.6,7-2.5,10.5c-0.6,2.2-2.5,3.6-4.8,3.9c-3.9,0.4-7.8,0.8-11.7,1.2c-2.8,0.3-5.6,0.6-8.4,0.9c-0.5,0-0.7,0.2-0.9,0.7
		c-0.9,1.9,0.3,3.9,2.6,3.9c6.2,0,12.4,0,18.6,0c0.2,0,0.4,0,0.6,0c0.5,0.1,0.8,0.5,0.8,1s-0.4,0.9-0.9,0.9c-0.1,0-0.3,0-0.4,0
		c-6.3,0-12.6,0-18.9,0c-3.5,0-5.7-3.4-4.3-6.6c0.3-0.6,0.3-1.2,0.1-1.9c-2-6-4-11.9-6-17.9C9.9,6.6,9.1,6,7.6,6C6.7,6,5.8,6,4.9,6
		C4.3,6,3.8,5.8,3.6,5.2C3.5,5.1,3.5,5,3.5,4.8z M13.7,11.9c0,0.1,0,0.2,0.1,0.3c1.5,4.5,3,8.9,4.4,13.4c0.1,0.2,0.2,0.3,0.4,0.3
		c1.8-0.2,3.5-0.4,5.3-0.5c5-0.5,10-1,15-1.6c1.7-0.2,2.8-1.1,3.2-2.8c0.5-2.1,1-4.2,1.5-6.2c0.2-0.8,0.4-1.6,0.6-2.5
		C34.1,12.2,23.9,12.1,13.7,11.9z"/>
	<path class="st0" d="M17.2,45.9c-2.5,0-4.5-2-4.5-4.5s2-4.5,4.5-4.5s4.5,2.1,4.5,4.5C21.7,43.9,19.7,45.9,17.2,45.9z M17.2,43.9
		c1.4,0,2.5-1.1,2.5-2.5s-1.1-2.5-2.5-2.5s-2.5,1.1-2.5,2.5C14.8,42.9,15.9,43.9,17.2,43.9z"/>
	<path class="st0" d="M40.7,41.5c0,2.5-2,4.5-4.5,4.5s-4.5-2-4.5-4.5s2-4.5,4.5-4.5S40.7,39,40.7,41.5z M36.1,43.9
		c1.4,0,2.5-1.1,2.5-2.5c0-1.3-1.1-2.5-2.5-2.5s-2.5,1.1-2.5,2.5C33.7,42.8,34.8,43.9,36.1,43.9z"/>
	<path class="st0" d="M17.2,43.9c-1.4,0-2.5-1.1-2.5-2.5s1.1-2.5,2.5-2.5s2.5,1.1,2.5,2.5C19.7,42.8,18.6,43.9,17.2,43.9z"/>
	<path class="st0" d="M36.1,43.9c-1.4,0-2.5-1.2-2.5-2.5c0-1.4,1.2-2.5,2.5-2.5c1.4,0,2.5,1.2,2.5,2.5C38.7,42.9,37.5,44,36.1,43.9z
		"/>
</g>
</svg>
