<?xml version="1.0" encoding="utf-8"?>
<!-- Generator: Adobe Illustrator 26.4.1, SVG Export Plug-In . SVG Version: 6.00 Build 0)  -->
<svg version="1.1" id="Capa_1" xmlns="http://www.w3.org/2000/svg" xmlns:xlink="http://www.w3.org/1999/xlink" x="0px" y="0px"
	 viewBox="0 0 63 62" style="enable-background:new 0 0 63 62;" xml:space="preserve">
<style type="text/css">
	.st0{fill:#6E4C3D;}
</style>
<g>
	<g>
		<path class="st0" d="M45.5,22l-14,7.8l-14-7.8c-0.3-0.2-0.6-0.1-0.8,0.2c-0.2,0.3-0.1,0.6,0.2,0.8l14.2,7.9c0.1,0,0.2,0.1,0.3,0.1
			h0.1c0.1,0,0.2,0,0.3-0.1L46,23c0.3-0.2,0.4-0.5,0.2-0.8C46.1,21.9,45.8,21.8,45.5,22z"/>
		<path class="st0" d="M31.5,2.7C15.9,2.7,3.2,15.4,3.2,31s12.7,28.3,28.3,28.3S59.8,46.6,59.8,31S47.1,2.7,31.5,2.7z M48,39.4
			c0,1.3-1.1,2.4-2.4,2.4H17.4c-1.3,0-2.4-1.1-2.4-2.4V22.6c0-1.3,1.1-2.4,2.4-2.4h28.1c1.3,0,2.4,1.1,2.4,2.4L48,39.4L48,39.4z"/>
	</g>
</g>
</svg>
