<?xml version="1.0" encoding="utf-8"?>
<!-- Generator: Adobe Illustrator 26.4.1, SVG Export Plug-In . SVG Version: 6.00 Build 0)  -->
<svg version="1.1" id="Capa_1" xmlns="http://www.w3.org/2000/svg" xmlns:xlink="http://www.w3.org/1999/xlink" x="0px" y="0px"
	 viewBox="0 0 63 62" style="enable-background:new 0 0 63 62;" xml:space="preserve">
<style type="text/css">
	.st0{fill:#FFFFFF;}
</style>
<path class="st0" d="M31.5,2.7C15.9,2.7,3.2,15.4,3.2,31s12.7,28.3,28.3,28.3S59.8,46.6,59.8,31S47.1,2.7,31.5,2.7z M43.6,24.9
	c0,0.3,0,0.5,0,0.8c0,1.2-0.1,2.4-0.4,3.7c-0.8,3.5-2.7,6.9-5.6,9.5c-2.9,2.5-6.8,4.2-11.6,4.2c-3.5,0-6.7-1-9.5-2.7
	c0.5,0.1,1,0.1,1.5,0.1c2.9,0,5.5-0.9,7.6-2.5v-0.1c-2.6-0.1-4.9-1.8-5.7-4.2l0,0c0.4,0.1,0.7,0.1,1.1,0.1c0.6,0,1.1-0.1,1.6-0.2
	c-2.1-0.4-3.8-1.9-4.5-3.8c-0.3-0.8-0.4-2-0.4-2.2l0,0c0.8,0.4,1.7,0.7,2.6,0.7c0,0,0.1,0,0-0.1c-1.6-1.1-2.6-2.9-2.6-5
	c0-1.1,0.3-2.1,0.8-3c0,0,0,0,0.1,0c3.1,3.7,7.6,6.1,12.7,6.3c-0.1-0.4-0.2-0.9-0.2-1.4c0-3.4,2.8-6.1,6.2-6.1
	c1.8,0,3.4,0.7,4.5,1.9c1.3-0.3,2.6-0.7,3.7-1.4c0.1,0,0.2,0,0.1,0.1c-0.5,1.3-1.4,2.4-2.6,3.1c1.1-0.1,2.2-0.4,3.2-0.8
	c0.1,0,0.2,0.1,0.1,0.1C45.7,23.2,44.7,24.2,43.6,24.9z"/>
</svg>
