<?xml version="1.0" encoding="utf-8"?>
<!-- Generator: Adobe Illustrator 26.4.1, SVG Export Plug-In . SVG Version: 6.00 Build 0)  -->
<svg version="1.1" id="Capa_1" xmlns="http://www.w3.org/2000/svg" xmlns:xlink="http://www.w3.org/1999/xlink" x="0px" y="0px"
	 viewBox="0 0 63 62" style="enable-background:new 0 0 63 62;" xml:space="preserve">
<style type="text/css">
	.st0{fill:#6E4C3D;}
</style>
<g>
	<path class="st0" d="M31.9,26.3c-3.1,0-5.6,2.5-5.6,5.6s2.5,5.6,5.6,5.6s5.6-2.5,5.6-5.6C37.4,28.8,34.9,26.3,31.9,26.3z"/>
	<path class="st0" d="M39.1,18.3H24.6c-3.5,0-6.4,2.8-6.4,6.3V39c0,3.5,2.8,6.3,6.4,6.3h14.5c3.5,0,6.4-2.8,6.4-6.3V24.6
		C45.5,21.2,42.6,18.3,39.1,18.3z M31.9,40.4c-4.7,0-8.6-3.8-8.6-8.5s3.8-8.5,8.6-8.5c4.7,0,8.6,3.8,8.6,8.5
		C40.4,36.6,36.6,40.4,31.9,40.4z M40.7,25c-1.1,0-1.9-0.9-1.9-1.9c0-1.1,0.9-1.9,1.9-1.9c1.1,0,1.9,0.9,1.9,1.9
		C42.6,24.1,41.8,25,40.7,25z"/>
	<path class="st0" d="M31.5,2.7C15.9,2.7,3.2,15.4,3.2,31s12.7,28.3,28.3,28.3S59.8,46.6,59.8,31S47.1,2.7,31.5,2.7z M48.1,39.1
		c0,4.9-4,8.9-9,8.9H24.6c-4.9,0-9-4-9-8.9V24.6c0-4.9,4-8.9,9-8.9h14.6c4.9,0,9,4,9,8.9v14.5H48.1z"/>
</g>
</svg>
