<?xml version="1.0" encoding="utf-8"?>
<!-- Generator: Adobe Illustrator 25.4.1, SVG Export Plug-In . SVG Version: 6.00 Build 0)  -->
<svg version="1.1" id="Capa_1" xmlns="http://www.w3.org/2000/svg" xmlns:xlink="http://www.w3.org/1999/xlink" x="0px" y="0px"
	 viewBox="0 0 264 264" style="enable-background:new 0 0 264 264;" xml:space="preserve">
<style type="text/css">
	.st0{fill:none;stroke:#605540;stroke-width:1.5;stroke-linecap:round;stroke-linejoin:round;stroke-miterlimit:10;}
	.st1{fill:none;stroke:#605540;stroke-width:1.5;stroke-miterlimit:10;}
	.st2{fill:#605540;}
</style>
<g>
	<path class="st1" d="M196.2,132c0-17.7-7.2-33.8-18.8-45.4S149.7,67.8,132,67.8S98.2,75,86.6,86.6S67.8,114.3,67.8,132
		s7.2,33.8,18.8,45.4c11.6,11.6,27.7,18.8,45.4,18.8s33.8-7.2,45.4-18.8C189,165.8,196.2,149.7,196.2,132z"/>
	<g>
		<g>
			<g>
				<path class="st0" d="M98.1,171.6c-5.6-4.8-10.2-10.7-13.3-17.5s-4.9-14.2-4.9-22.1c0-9.7,2.7-18.8,7.3-26.6s11.2-14.3,19.1-18.8
					"/>
				<path class="st0" d="M156.8,86.2c8.1,4.4,14.9,10.9,19.7,18.8c4.8,7.9,7.6,17.1,7.6,27c0,8-1.8,15.5-5,22.3
					c-3.2,6.8-7.8,12.7-13.5,17.5"/>
			</g>
			<g>
				<g>
					<path class="st2" d="M118.3,85.2c0.3-0.1,0.6-0.2,0.8-0.4c0.2-0.2,0.3-0.5,0.2-0.8c-0.1-0.3-0.3-0.4-0.6-0.5
						c-0.3-0.1-0.6-0.1-0.9-0.2c-0.5,0-1.1-0.1-1.6-0.2c-0.5-0.2-0.9-0.4-1-0.9c-0.2-0.6,0-1.1,0.3-1.5s0.8-0.7,1.4-0.8
						c0.3-0.1,0.6-0.1,0.9-0.1c0.3,0,0.6,0,0.9,0.1c0.1,0,0.1,0.1,0.2,0.1c0.1,0.1,0.1,0.1,0.1,0.2c0,0.1,0,0.2,0,0.3
						c0,0.1-0.1,0.1-0.2,0.2c0,0-0.1,0-0.1,0s-0.1,0-0.1,0c-0.1,0-0.4-0.1-0.6,0c-0.2,0-0.5,0.1-0.7,0.1c-0.3,0.1-0.6,0.2-0.8,0.4
						c-0.2,0.2-0.3,0.5-0.2,0.8c0.1,0.2,0.3,0.4,0.7,0.4c0.3,0.1,0.8,0.1,1.2,0.2c0.5,0.1,1,0.1,1.4,0.3s0.7,0.4,0.8,0.9
						c0.2,0.6,0,1.2-0.3,1.6c-0.3,0.4-0.8,0.7-1.4,0.8c-0.4,0.1-0.7,0.1-1.1,0.1c-0.3,0-0.7-0.1-1-0.2c-0.1,0-0.1-0.1-0.1-0.1
						c0,0-0.1-0.1-0.1-0.2c0-0.1,0-0.3,0-0.4c0-0.1,0.1-0.1,0.2-0.2c0,0,0.1,0,0.2,0c0.1,0,0.1,0,0.2,0c0.2,0.1,0.5,0.1,0.7,0.1
						C117.8,85.3,118,85.3,118.3,85.2z"/>
					<path class="st2" d="M123.5,76.5c0-0.1,0-0.2,0.1-0.3c0.1-0.1,0.1-0.1,0.3-0.1c0.1,0,0.2,0,0.3,0.1c0.1,0.1,0.1,0.2,0.1,0.3
						l0.5,3.8l0.5,3.8c0,0.1,0,0.2-0.1,0.3c-0.1,0.1-0.2,0.1-0.3,0.1c-0.1,0-0.2,0-0.3-0.1c-0.1-0.1-0.1-0.2-0.1-0.3l-0.5-3.8
						L123.5,76.5z"/>
					<path class="st2" d="M135,81c0,0.8-0.3,1.6-0.7,2.1c-0.5,0.6-1.1,0.9-2,0.9c-0.9,0-1.5-0.4-1.9-1c-0.4-0.6-0.6-1.4-0.6-2.2
						c0-0.8,0.3-1.6,0.7-2.2c0.5-0.6,1.1-1,2-0.9c0.9,0,1.5,0.4,1.9,1.1C134.8,79.4,135.1,80.2,135,81z M130.6,80.8
						c0,0.6,0.1,1.2,0.4,1.7c0.3,0.5,0.7,0.8,1.3,0.9c0.6,0,1.1-0.3,1.4-0.7c0.3-0.4,0.5-1,0.5-1.6c0-0.5-0.1-1.2-0.4-1.7
						c-0.3-0.5-0.7-0.9-1.3-0.9c-0.6,0-1.1,0.3-1.4,0.7C130.8,79.6,130.6,80.2,130.6,80.8z"/>
					<path class="st2" d="M141.1,83.3l1.2-1.9l1.2-1.9c0.1-0.1,0.2-0.2,0.3-0.2c0.1,0,0.2-0.1,0.3,0c0.1,0,0.2,0.1,0.3,0.2
						c0.1,0.1,0.1,0.2,0.2,0.3l0.2,2.2l0.2,2.2l1.1-1.9l1.1-1.9c0.1-0.1,0.1-0.2,0.2-0.2c0.1,0,0.2,0,0.3,0c0.1,0,0.2,0.1,0.2,0.2
						c0,0.1,0,0.2,0,0.3c0,0,0,0.1,0,0.1c0,0,0,0.1-0.1,0.1c0,0,0,0-0.3,0.6c-0.3,0.6-1,1.7-2.4,3.9c-0.1,0.1-0.2,0.2-0.3,0.2
						c-0.1,0-0.2,0.1-0.3,0c-0.1,0-0.2-0.1-0.2-0.2c-0.1-0.1-0.1-0.2-0.1-0.4l-0.2-2.2l-0.2-2.2l-1.2,1.9l-1.2,1.9
						c-0.1,0.1-0.2,0.2-0.3,0.3c-0.1,0-0.2,0.1-0.3,0c-0.1,0-0.2-0.1-0.3-0.2s-0.1-0.2-0.1-0.4c-0.2-2.6-0.4-3.9-0.4-4.6
						c-0.1-0.7-0.1-0.7,0-0.8c0-0.1,0.1-0.2,0.2-0.3c0.1-0.1,0.2-0.1,0.3,0c0.1,0,0.2,0.1,0.3,0.1c0.1,0.1,0.1,0.2,0.1,0.3l0.2,2.3
						L141.1,83.3z"/>
				</g>
				<g>
					<g>
						<path class="st2" d="M106,174.6l-0.2-0.1l-0.2-0.1c-0.1-0.1-0.2-0.2-0.2-0.3c0-0.1,0-0.2,0-0.3c0.1-0.1,0.2-0.2,0.3-0.2
							c0.1,0,0.2,0,0.3,0.1l0.2,0.1l0.2,0.1c0.3-0.6,0.7-0.9,1.1-1.1c0.4-0.2,0.8-0.1,1.3,0.1c0.1,0.1,0.2,0.2,0.3,0.3
							c0,0.1,0,0.2,0,0.3c-0.1,0.1-0.1,0.2-0.2,0.2c-0.1,0-0.2,0-0.4-0.1c-0.3-0.2-0.5-0.2-0.7,0c-0.2,0.1-0.4,0.4-0.6,0.8
							c0.1,0,0.1,0.1,0.2,0.1c0.1,0.1,0.2,0.1,0.4,0.2c0.1,0.1,0.2,0.2,0.2,0.3c0,0.1,0,0.2-0.1,0.3c-0.1,0.1-0.2,0.2-0.3,0.2
							c-0.1,0-0.2,0-0.4-0.1l-0.3-0.2l-0.3-0.2l-1.2,2.1l-1.2,2.1c-0.1,0.1-0.1,0.2-0.2,0.2c-0.1,0-0.2,0-0.3-0.1
							c-0.1-0.1-0.2-0.1-0.2-0.2c0-0.1,0-0.2,0.1-0.3l1.2-2.1L106,174.6z"/>
						<path class="st2" d="M114.1,177.5c0.7,0.3,1.1,0.7,1.3,1.1c0.2,0.5,0.2,1,0,1.5l-0.7,1.8l-0.7,1.8c0,0.1-0.1,0.2-0.2,0.2
							c-0.1,0-0.2,0.1-0.3,0c-0.1,0-0.2-0.1-0.2-0.2s0-0.2,0-0.3s0.1-0.2,0.1-0.2s0-0.1,0-0.1c-0.3,0.2-0.6,0.2-1,0.2
							c-0.3,0-0.7-0.1-1-0.2c-0.5-0.2-0.9-0.5-1.2-0.9c-0.3-0.4-0.3-0.9-0.1-1.5c0.2-0.6,0.7-0.9,1.2-1.1c0.5-0.1,1.1-0.1,1.6,0.1
							c0.3,0.1,0.6,0.3,0.8,0.5c0.2,0.2,0.4,0.4,0.5,0.6l0.2-0.5l0.2-0.5c0.1-0.4,0.1-0.7-0.1-1s-0.5-0.6-1-0.7
							c-0.3-0.1-0.6-0.2-0.9-0.2s-0.5,0-0.6-0.1c-0.1,0-0.2-0.1-0.2-0.2c0-0.1-0.1-0.2,0-0.3c0-0.1,0.1-0.1,0.2-0.2
							c0.1,0,0.2-0.1,0.3-0.1c0.3,0,0.5,0,0.8,0.1C113.4,177.3,113.8,177.4,114.1,177.5z M111.9,182.5c0.4,0.1,0.8,0.2,1.2,0.1
							c0.4-0.1,0.7-0.3,0.8-0.6c0.1-0.3,0-0.6-0.2-0.9s-0.6-0.5-0.9-0.6c-0.4-0.1-0.7-0.2-1.1-0.1s-0.6,0.3-0.7,0.6
							c-0.1,0.4-0.1,0.7,0.1,0.9C111.2,182.2,111.5,182.4,111.9,182.5z"/>
						<path class="st2" d="M121.5,185.3c0.3,0.1,0.6,0.1,0.9,0c0.3-0.1,0.5-0.3,0.6-0.6c0-0.3-0.1-0.5-0.3-0.7s-0.5-0.4-0.8-0.5
							c-0.5-0.3-1-0.6-1.3-0.9c-0.4-0.4-0.6-0.7-0.5-1.2c0.1-0.6,0.4-1,0.9-1.2c0.4-0.2,1-0.2,1.6-0.1c0.3,0.1,0.6,0.1,0.8,0.2
							s0.5,0.3,0.8,0.4c0.1,0,0.1,0.1,0.1,0.2c0,0.1,0,0.1,0,0.2c0,0.1-0.1,0.2-0.2,0.3c-0.1,0.1-0.2,0.1-0.3,0c0,0-0.1,0-0.1,0
							c0,0-0.1,0-0.1-0.1c-0.1-0.1-0.3-0.2-0.5-0.3c-0.2-0.1-0.5-0.2-0.7-0.2c-0.3-0.1-0.6-0.1-0.9,0c-0.3,0.1-0.5,0.3-0.5,0.6
							c0,0.2,0.1,0.5,0.4,0.7c0.3,0.2,0.7,0.4,1,0.7c0.4,0.3,0.8,0.5,1.1,0.8c0.3,0.3,0.5,0.7,0.4,1.2c-0.1,0.7-0.5,1.1-1,1.3
							c-0.5,0.2-1,0.2-1.6,0.1c-0.4-0.1-0.7-0.2-1-0.4c-0.3-0.2-0.6-0.4-0.8-0.6c0,0-0.1-0.1-0.1-0.2c0-0.1,0-0.1,0-0.2
							c0-0.1,0.1-0.3,0.2-0.3c0.1-0.1,0.2-0.1,0.3-0.1c0,0,0.1,0,0.1,0.1c0,0,0.1,0.1,0.1,0.1c0.2,0.2,0.4,0.3,0.6,0.5
							C120.9,185.1,121.2,185.2,121.5,185.3z"/>
						<path class="st2" d="M128.9,178.8c0-0.1,0-0.2,0.1-0.3c0.1-0.1,0.2-0.1,0.3-0.1c0.1,0,0.2,0,0.3,0.1c0.1,0.1,0.1,0.2,0.1,0.3
							l0,1.4l0,1.4c0.2-0.3,0.4-0.6,0.7-0.7c0.3-0.1,0.6-0.2,0.9-0.2c0.5,0,1.1,0.2,1.5,0.6c0.4,0.4,0.7,0.9,0.7,1.5l0,1.9l0,1.9
							c0,0.1,0,0.2-0.1,0.3c-0.1,0.1-0.2,0.1-0.3,0.1c-0.1,0-0.2,0-0.3-0.1c-0.1-0.1-0.1-0.2-0.1-0.3l0-1.7l0-1.7
							c0-0.5-0.2-1-0.4-1.2c-0.3-0.3-0.6-0.4-1-0.4c-0.4,0-0.8,0.1-1,0.4s-0.5,0.7-0.5,1.2l0,1.7l0,1.7c0,0.1,0,0.2-0.1,0.3
							c-0.1,0.1-0.2,0.1-0.3,0.1c-0.1,0-0.2,0-0.3-0.1s-0.1-0.2-0.1-0.3l0.1-3.8L128.9,178.8z"/>
						<path class="st2" d="M137.6,178c0.2,0,0.3,0,0.4,0.1c0.1,0.1,0.2,0.2,0.2,0.4c0,0.2,0,0.3-0.1,0.4c-0.1,0.1-0.2,0.2-0.4,0.2
							c-0.2,0-0.3,0-0.4-0.1c-0.1-0.1-0.2-0.2-0.2-0.4c0-0.2,0-0.3,0.1-0.4C137.4,178.1,137.5,178,137.6,178z M137.7,180.8
							c0-0.1,0-0.2,0.1-0.3c0.1-0.1,0.2-0.1,0.3-0.1c0.1,0,0.2,0,0.3,0.1c0.1,0.1,0.1,0.1,0.2,0.3l0.4,2.7l0.4,2.7
							c0,0.1,0,0.2-0.1,0.3c-0.1,0.1-0.2,0.1-0.3,0.1c-0.1,0-0.2,0-0.3-0.1c-0.1-0.1-0.1-0.2-0.1-0.3l-0.4-2.7L137.7,180.8z"/>
						<path class="st2" d="M148.9,181.1c0.2,0.8,0.2,1.6,0,2.3c-0.3,0.7-0.8,1.2-1.6,1.5c-0.8,0.3-1.6,0.1-2.2-0.4
							c-0.6-0.4-1-1.1-1.3-1.9c-0.2-0.8-0.3-1.6,0-2.3s0.8-1.3,1.6-1.5c0.8-0.3,1.6-0.1,2.2,0.4S148.7,180.3,148.9,181.1z
							 M144.6,182.2c0.2,0.5,0.5,1.1,0.9,1.5c0.4,0.4,0.9,0.6,1.5,0.4c0.6-0.2,0.9-0.6,1.1-1.1c0.2-0.5,0.1-1.1,0-1.6
							c-0.2-0.5-0.5-1.1-0.9-1.5c-0.4-0.4-1-0.6-1.5-0.4c-0.6,0.2-0.9,0.6-1.1,1.1C144.4,181.1,144.5,181.7,144.6,182.2z"/>
						<path class="st2" d="M152.1,176.9c-0.1-0.1-0.1-0.2-0.1-0.3c0-0.1,0.1-0.2,0.2-0.2c0.1-0.1,0.2-0.1,0.3,0
							c0.1,0,0.2,0.1,0.2,0.2l0.1,0.2l0.1,0.2c0-0.4,0.1-0.7,0.3-1c0.2-0.3,0.4-0.5,0.7-0.6c0.5-0.2,1-0.3,1.5-0.2s1,0.5,1.3,1
							l0.9,1.7l0.9,1.7c0.1,0.1,0.1,0.2,0,0.3c0,0.1-0.1,0.2-0.2,0.2c-0.1,0.1-0.2,0.1-0.3,0.1c-0.1,0-0.2-0.1-0.2-0.2l-0.8-1.5
							l-0.8-1.5c-0.3-0.5-0.6-0.8-1-0.9c-0.4-0.1-0.8-0.1-1.1,0.1c-0.3,0.2-0.6,0.5-0.7,0.8c-0.1,0.4-0.1,0.8,0.2,1.3l0.8,1.5
							l0.8,1.5c0.1,0.1,0.1,0.2,0,0.3s-0.1,0.2-0.2,0.2c-0.1,0.1-0.2,0.1-0.3,0.1c-0.1,0-0.2-0.1-0.2-0.2l-1.2-2.3L152.1,176.9z"/>
					</g>
				</g>
			</g>
		</g>
		<g>
			<g>
				<path class="st0" d="M131.9,142.4c0,0,1.1-0.9,2.3-2.5c1.1-1.6,2.3-3.9,2.3-6.9c0-2.9-1.1-5.1-2.3-6.5c-1.1-1.4-2.3-2.1-2.3-2.1
					s-1.1,0.7-2.3,2.1c-1.1,1.4-2.3,3.5-2.3,6.5c0,2.9,1.1,5.3,2.3,6.9C130.8,141.5,131.9,142.4,131.9,142.4z"/>
				<path class="st0" d="M132,144.2c0,0,1,0.6,2.6,1c1.6,0.4,3.7,0.5,5.9-0.4c2.2-0.9,3.5-2.4,4.2-3.7c0.7-1.3,0.9-2.4,0.9-2.4
					s-0.9-0.7-2.3-1.1c-1.4-0.4-3.4-0.7-5.6,0.2c-2.2,0.9-3.7,2.5-4.5,3.9C132.3,143.1,132,144.2,132,144.2z"/>
				<path class="st0" d="M131.9,144.2c0,0-1,0.6-2.6,1c-1.6,0.4-3.7,0.5-5.9-0.4c-2.2-0.9-3.5-2.4-4.2-3.7c-0.7-1.3-0.9-2.4-0.9-2.4
					s0.9-0.7,2.3-1.1c1.4-0.4,3.4-0.7,5.6,0.2c2.2,0.9,3.7,2.5,4.5,3.9C131.6,143.1,131.9,144.2,131.9,144.2z"/>
				<polyline class="st0" points="131.9,133.5 131.9,142.8 131.9,152 				"/>
				<polyline class="st0" points="132,144.2 135.3,142.9 138.6,141.5 				"/>
				<polyline class="st0" points="131.7,144.2 128.4,142.9 125.1,141.5 				"/>
			</g>
			<g>
				<polygon class="st1" points="150.4,163.7 131.9,163.7 113.5,163.7 113.5,141.3 113.5,118.8 116.7,112.2 119.9,105.7 
					131.9,105.7 144,105.7 147.2,112.2 150.4,118.8 150.4,141.3 				"/>
				<path class="st1" d="M134.5,112.5c0-0.7-0.3-1.4-0.8-1.8c-0.5-0.5-1.1-0.8-1.8-0.8c-0.7,0-1.4,0.3-1.8,0.8
					c-0.5,0.5-0.8,1.1-0.8,1.8c0,0.7,0.3,1.4,0.8,1.8c0.5,0.5,1.1,0.8,1.8,0.8c0.7,0,1.4-0.3,1.8-0.8
					C134.2,113.8,134.5,113.2,134.5,112.5z"/>
			</g>
			<path class="st1" d="M132,109.9c0,0.3,0,0.6,0.1,0.8c0.1,0.3,0.2,0.5,0.3,0.7c0.8,1.1,2.5,1.4,4.7,0.9s4.8-1.6,7.4-3.4
				c2.6-1.8,4.6-3.8,5.8-5.7c1.2-1.9,1.5-3.6,0.8-4.7c-0.8-1.1-2.5-1.4-4.7-0.9c-2.2,0.5-4.8,1.6-7.4,3.4c-1,0.7-2,1.5-2.8,2.3
				c-0.8,0.8-1.6,1.6-2.2,2.4"/>
		</g>
	</g>
</g>
</svg>
