<?xml version="1.0" encoding="utf-8"?>
<!-- Generator: Adobe Illustrator 25.4.1, SVG Export Plug-In . SVG Version: 6.00 Build 0)  -->
<svg version="1.1" id="Capa_1" xmlns="http://www.w3.org/2000/svg" xmlns:xlink="http://www.w3.org/1999/xlink" x="0px" y="0px"
	 viewBox="0 0 264 264" style="enable-background:new 0 0 264 264;" xml:space="preserve">
<style type="text/css">
	.st0{fill:none;stroke:#605540;stroke-width:1.5;stroke-linecap:round;stroke-linejoin:round;stroke-miterlimit:10;}
	.st1{fill:none;stroke:#605540;stroke-width:1.5;stroke-miterlimit:10;}
	.st2{fill:#605540;}
</style>
<g>
	<path class="st1" d="M196.2,132c0-17.7-7.2-33.8-18.8-45.4S149.7,67.8,132,67.8S98.2,75,86.6,86.6S67.8,114.3,67.8,132
		s7.2,33.8,18.8,45.4s27.7,18.8,45.4,18.8s33.8-7.2,45.4-18.8S196.2,149.7,196.2,132z"/>
	<g>
		<g>
			<g>
				<path class="st0" d="M98.1,171.6c-5.6-4.8-10.2-10.7-13.3-17.5s-4.9-14.2-4.9-22.1c0-9.7,2.7-18.8,7.3-26.6s11.2-14.3,19.1-18.8
					"/>
				<path class="st0" d="M156.8,86.2c8.1,4.4,14.9,10.9,19.7,18.8c4.8,7.9,7.6,17.1,7.6,27c0,8-1.8,15.5-5,22.3
					c-3.2,6.8-7.8,12.7-13.5,17.5"/>
			</g>
			<g>
				<g>
					<path class="st2" d="M124.5,80.9c0.1,0.3,0.1,0.5,0,0.7c-0.1,0.2-0.2,0.3-0.4,0.3l-1.8,0.3l-1.8,0.3c0.1,0.5,0.4,0.9,0.8,1.2
						s0.9,0.5,1.4,0.4c0.3-0.1,0.5-0.1,0.8-0.3c0.2-0.1,0.4-0.3,0.6-0.6c0.1-0.1,0.1-0.1,0.2-0.2c0.1,0,0.2-0.1,0.2-0.1
						c0.1,0,0.2,0,0.3,0c0.1,0,0.1,0.1,0.2,0.3c0,0,0,0.1,0,0.1c0,0,0,0.1,0,0.1c-0.2,0.4-0.5,0.7-0.8,0.9s-0.7,0.4-1.2,0.5
						c-0.9,0.2-1.6-0.1-2.2-0.6s-1-1.2-1.1-2.1c-0.1-0.8-0.1-1.6,0.3-2.3c0.3-0.7,0.9-1.2,1.7-1.3c0.8-0.1,1.5,0,2,0.4
						C124,79.5,124.4,80.1,124.5,80.9z M123.7,81.2c-0.1-0.5-0.3-1-0.7-1.3c-0.4-0.3-0.8-0.5-1.3-0.4c-0.5,0.1-0.9,0.4-1.2,0.8
						c-0.2,0.4-0.3,0.9-0.2,1.5l1.7-0.3L123.7,81.2z"/>
					<path class="st2" d="M130.3,80.9c0,0.6,0.2,1.2,0.6,1.6s0.9,0.7,1.5,0.7c0.2,0,0.4,0,0.6-0.1c0.2-0.1,0.4-0.1,0.6-0.3
						c0,0,0,0,0.1,0c0,0,0,0,0.1,0c0.1,0,0.2,0,0.2,0.1c0.1,0.1,0.1,0.2,0.1,0.2c0,0.1,0,0.1-0.1,0.2s-0.1,0.1-0.2,0.2
						c-0.2,0.1-0.5,0.3-0.7,0.3c-0.2,0.1-0.5,0.1-0.7,0.1c-0.8,0-1.5-0.4-2-0.9c-0.5-0.6-0.8-1.4-0.8-2.3c0-0.9,0.4-1.7,0.9-2.2
						c0.5-0.5,1.3-0.8,2-0.8c0.2,0,0.4,0,0.6,0.1s0.4,0.1,0.6,0.2c0.1,0.1,0.2,0.1,0.3,0.2c0.1,0.1,0.1,0.1,0.1,0.2
						c0,0.1,0,0.2-0.1,0.3c-0.1,0.1-0.2,0.1-0.3,0.1c0,0,0,0-0.1,0c0,0,0,0-0.1,0c-0.2-0.1-0.4-0.1-0.6-0.2c-0.2,0-0.4-0.1-0.6-0.1
						c-0.6,0-1.1,0.2-1.5,0.6C130.5,79.6,130.3,80.2,130.3,80.9z"/>
					<path class="st2" d="M143.3,82.2c-0.1,0.8-0.5,1.5-1.1,2c-0.5,0.5-1.3,0.7-2.1,0.6c-0.8-0.2-1.4-0.7-1.8-1.3
						c-0.3-0.7-0.4-1.5-0.3-2.3c0.1-0.8,0.5-1.5,1.1-2c0.5-0.5,1.3-0.8,2.1-0.6c0.8,0.2,1.4,0.7,1.7,1.4
						C143.4,80.5,143.5,81.4,143.3,82.2z M139,81.2c-0.1,0.5-0.1,1.2,0.1,1.7s0.6,1,1.2,1.1c0.6,0.1,1.1-0.1,1.5-0.5
						c0.4-0.4,0.6-0.9,0.7-1.5c0.1-0.5,0.1-1.2-0.1-1.7c-0.2-0.5-0.6-1-1.2-1.1c-0.6-0.1-1.1,0.1-1.5,0.5
						C139.4,80.1,139.1,80.7,139,81.2z"/>
				</g>
				<g>
					<g>
						<path class="st2" d="M104,173.3l-0.2-0.1l-0.2-0.1c-0.1-0.1-0.2-0.2-0.2-0.3s0-0.2,0.1-0.3c0.1-0.1,0.2-0.2,0.3-0.2
							c0.1,0,0.2,0,0.3,0.1l0.2,0.1l0.2,0.1c0.3-0.5,0.7-0.9,1.1-1.1c0.4-0.2,0.8-0.1,1.3,0.2c0.1,0.1,0.2,0.2,0.2,0.3
							c0,0.1,0,0.2-0.1,0.3c-0.1,0.1-0.1,0.2-0.2,0.2c-0.1,0-0.2,0-0.3-0.1c-0.3-0.2-0.5-0.2-0.7-0.1c-0.2,0.1-0.4,0.4-0.7,0.7
							c0.1,0,0.1,0.1,0.2,0.1s0.2,0.1,0.4,0.2c0.1,0.1,0.2,0.2,0.2,0.3s0,0.2-0.1,0.3c-0.1,0.1-0.2,0.2-0.3,0.2
							c-0.1,0-0.2,0-0.4-0.1l-0.3-0.2l-0.3-0.2l-1.3,2l-1.3,2c-0.1,0.1-0.2,0.2-0.2,0.2c-0.1,0-0.2,0-0.3-0.1
							c-0.1-0.1-0.2-0.2-0.2-0.2c0-0.1,0-0.2,0.1-0.3l1.3-2L104,173.3z"/>
						<path class="st2" d="M109.3,175.9c0.1-0.1,0.1-0.2,0.2-0.2s0.2,0,0.3,0c0.1,0.1,0.2,0.1,0.2,0.2c0,0.1,0,0.2,0,0.3l-0.1,0.2
							l-0.1,0.2c0.3-0.2,0.7-0.4,1.1-0.4c0.4,0,0.8,0.1,1.1,0.2c0.3,0.1,0.4,0.3,0.5,0.4c0.1,0.1,0.1,0.3,0,0.4
							c0,0.1-0.1,0.2-0.2,0.2c-0.1,0-0.2,0-0.3,0c-0.1-0.1-0.2-0.1-0.3-0.2c-0.1-0.1-0.2-0.1-0.3-0.2c-0.3-0.1-0.7-0.1-1.1,0
							c-0.4,0.1-0.7,0.4-0.9,0.8l-0.7,1.6l-0.7,1.6c-0.1,0.1-0.1,0.2-0.2,0.2s-0.2,0-0.3,0c-0.1-0.1-0.2-0.1-0.2-0.2
							c0-0.1,0-0.2,0-0.3l1.1-2.4L109.3,175.9z"/>
						<path class="st2" d="M116.6,178.8c0-0.1,0.1-0.2,0.2-0.3c0.1,0,0.2,0,0.3,0c0.1,0,0.2,0.1,0.3,0.2s0.1,0.2,0,0.3l-0.8,2.6
							l-0.8,2.6c0,0.1-0.1,0.2-0.2,0.3c-0.1,0-0.2,0-0.3,0c-0.1,0-0.2-0.1-0.3-0.2c0-0.1-0.1-0.2,0-0.3l0.8-2.6L116.6,178.8z
							 M117.8,176.3c0.1,0,0.3,0.1,0.3,0.3c0.1,0.1,0.1,0.3,0,0.4c0,0.1-0.1,0.3-0.3,0.3c-0.1,0.1-0.3,0.1-0.4,0
							c-0.1,0-0.3-0.1-0.3-0.3c-0.1-0.1-0.1-0.3,0-0.4c0-0.1,0.1-0.3,0.3-0.3C117.5,176.3,117.6,176.2,117.8,176.3z"/>
						<path class="st2" d="M126.7,183.2c0,0.3-0.1,0.5-0.2,0.6c-0.1,0.1-0.3,0.2-0.5,0.2l-1.8-0.2l-1.8-0.2c-0.1,0.5,0.1,1,0.4,1.4
							c0.3,0.4,0.8,0.7,1.2,0.8c0.3,0,0.6,0,0.8,0c0.2-0.1,0.5-0.2,0.7-0.3c0.1-0.1,0.2-0.1,0.2-0.1c0.1,0,0.2,0,0.2,0
							c0.1,0,0.2,0.1,0.2,0.1c0.1,0.1,0.1,0.2,0.1,0.3c0,0,0,0.1,0,0.1c0,0,0,0.1-0.1,0.1c-0.3,0.3-0.6,0.5-1,0.6
							c-0.4,0.1-0.8,0.1-1.3,0.1c-0.9-0.1-1.5-0.6-1.9-1.2c-0.4-0.6-0.5-1.5-0.4-2.3c0.1-0.8,0.4-1.6,1-2.1c0.5-0.5,1.2-0.8,2.1-0.7
							c0.8,0.1,1.4,0.5,1.7,1C126.7,181.7,126.8,182.4,126.7,183.2z M125.9,183.2c0.1-0.5,0-1.1-0.3-1.5s-0.6-0.7-1.1-0.7
							c-0.5-0.1-1,0.1-1.4,0.4c-0.4,0.3-0.6,0.8-0.7,1.3l1.7,0.2L125.9,183.2z"/>
						<path class="st2" d="M131.5,181.3c0-0.1,0-0.2,0.1-0.3c0.1-0.1,0.2-0.1,0.3-0.1c0.1,0,0.2,0,0.3,0.1c0.1,0.1,0.1,0.2,0.1,0.3
							l0,0.2l0,0.2c0.2-0.3,0.4-0.6,0.7-0.8c0.3-0.2,0.6-0.3,0.9-0.3c0.5,0,1.1,0.1,1.5,0.5c0.4,0.3,0.7,0.8,0.7,1.5l0.1,1.9
							l0.1,1.9c0,0.1,0,0.2-0.1,0.3s-0.2,0.1-0.3,0.1c-0.1,0-0.2,0-0.3-0.1c-0.1-0.1-0.1-0.2-0.1-0.3l-0.1-1.7l-0.1-1.7
							c0-0.5-0.2-0.9-0.5-1.2c-0.3-0.3-0.7-0.4-1-0.3c-0.4,0-0.7,0.2-1,0.5c-0.3,0.3-0.4,0.7-0.4,1.2l0.1,1.7l0.1,1.7
							c0,0.1,0,0.2-0.1,0.3c-0.1,0.1-0.2,0.1-0.3,0.1c-0.1,0-0.2,0-0.3-0.1s-0.1-0.2-0.1-0.3l-0.1-2.6L131.5,181.3z"/>
						<path class="st2" d="M143.9,177.3c0-0.1,0-0.2,0-0.3s0.1-0.1,0.3-0.2c0.1,0,0.2,0,0.3,0s0.1,0.1,0.2,0.3l0.9,3.8l0.9,3.8
							c0,0.1,0,0.2,0,0.3c0,0.1-0.1,0.1-0.3,0.2c-0.1,0-0.2,0-0.3,0c-0.1,0-0.1-0.1-0.2-0.2l-0.1-0.4l-0.1-0.4
							c-0.1,0.3-0.3,0.6-0.5,0.9s-0.6,0.5-0.9,0.6c-0.8,0.2-1.5,0-2.1-0.5c-0.5-0.5-0.9-1.2-1.1-1.9c-0.2-0.8-0.2-1.6,0.1-2.3
							s0.8-1.3,1.6-1.5c0.3-0.1,0.7-0.1,1,0c0.4,0.1,0.7,0.3,0.9,0.6l-0.3-1.4L143.9,177.3z M145.1,182.2c-0.2-0.7-0.5-1.3-1-1.6
							c-0.4-0.3-0.9-0.4-1.3-0.3c-0.5,0.1-0.9,0.5-1.1,1.1c-0.2,0.5-0.2,1.2,0,1.8c0.1,0.6,0.4,1.1,0.8,1.5s0.9,0.5,1.4,0.4
							c0.4-0.1,0.8-0.4,1-0.9S145.3,182.9,145.1,182.2z"/>
						<path class="st2" d="M148.5,175.8c-0.1-0.1-0.1-0.2,0-0.3c0-0.1,0.1-0.2,0.2-0.2c0.1-0.1,0.2-0.1,0.3,0c0.1,0,0.2,0.1,0.2,0.2
							l1.5,3.6l1.5,3.6c0.1,0.1,0.1,0.2,0,0.3c0,0.1-0.1,0.2-0.2,0.2c-0.1,0.1-0.2,0.1-0.3,0c-0.1,0-0.2-0.1-0.2-0.2l-1.5-3.6
							L148.5,175.8z"/>
						<path class="st2" d="M158.7,179.7l-2.1-1.8l-2.1-1.8c0,0-0.1-0.1-0.1-0.1s-0.1-0.1-0.1-0.1c-0.1-0.1-0.1-0.2-0.1-0.3
							s0.1-0.2,0.2-0.2c0.1-0.1,0.2-0.1,0.3-0.1s0.2,0.1,0.3,0.2l1.7,1.5l1.7,1.5l-0.5-2.3l-0.5-2.3c0-0.1,0-0.2,0-0.3
							c0-0.1,0.1-0.2,0.2-0.2c0.1-0.1,0.2-0.1,0.3-0.1s0.2,0.1,0.2,0.2c0,0,0,0.1,0.1,0.1c0,0,0,0.1,0,0.1l0.8,3.9l0.8,3.9
							c0,0.1,0,0.2,0,0.3c0,0.1-0.1,0.2-0.2,0.2c-0.1,0.1-0.2,0.1-0.3,0.1s-0.2-0.1-0.2-0.2c0,0,0-0.1-0.1-0.1c0,0,0-0.1,0-0.1
							l-0.2-1L158.7,179.7z"/>
					</g>
				</g>
			</g>
		</g>
		<g>
			<g>
				<path class="st1" d="M130.5,117.4l-19.1,13.8L92.2,145c-0.7,0.5-0.9,1.3-0.6,2c0.2,0.7,0.8,1.2,1.7,1.2h38.1h38.1
					c0.8,0,1.4-0.5,1.7-1.2s0-1.5-0.6-2l-19.1-13.8l-19.1-13.8c-0.3-0.2-0.6-0.3-0.9-0.3C131,117.1,130.7,117.2,130.5,117.4z"/>
				<path class="st0" d="M125.8,104.4c0.7-1.1,1.7-2.1,2.8-2.6c1.2-0.6,2.6-0.8,4.1-0.5c1.2,0.2,2.4,0.9,3.2,1.7
					c0.9,0.9,1.5,2,1.8,3.2c0.4,1.9,0,3.6-1,5c-0.9,1.4-2.4,2.4-4.1,2.7c-0.4,0.1-0.7,0.3-0.9,0.6c-0.2,0.3-0.3,0.6-0.3,1v0.9v0.9"
					/>
			</g>
			<g>
				<path class="st0" d="M131.4,140.8c0,0,1.1-0.8,2.2-2.4c1.1-1.6,2.2-3.8,2.2-6.7c0-2.9-1.1-4.9-2.2-6.3c-1.1-1.4-2.2-2-2.2-2
					s-1.1,0.6-2.2,2s-2.2,3.4-2.2,6.3c0,2.9,1.1,5.1,2.2,6.7C130.2,139.9,131.4,140.8,131.4,140.8z"/>
				<polyline class="st0" points="131.3,131.4 131.3,137.7 131.3,144.1 				"/>
			</g>
		</g>
	</g>
</g>
</svg>
