<?xml version="1.0" encoding="utf-8"?>
<!-- Generator: Adobe Illustrator 25.4.1, SVG Export Plug-In . SVG Version: 6.00 Build 0)  -->
<svg version="1.1" id="Capa_1" xmlns="http://www.w3.org/2000/svg" xmlns:xlink="http://www.w3.org/1999/xlink" x="0px" y="0px"
	 viewBox="0 0 264 264" style="enable-background:new 0 0 264 264;" xml:space="preserve">
<style type="text/css">
	.st0{fill:none;stroke:#605540;stroke-width:1.5;stroke-linecap:round;stroke-linejoin:round;stroke-miterlimit:10;}
	.st1{fill:none;stroke:#605540;stroke-width:1.5;stroke-miterlimit:10;}
	.st2{fill:#605540;}
</style>
<g>
	<path class="st1" d="M195.8,132c0-17.6-7.1-33.6-18.7-45.1S149.6,68.2,132,68.2s-33.6,7.1-45.1,18.7S68.2,114.4,68.2,132
		s7.1,33.6,18.7,45.1s27.5,18.7,45.1,18.7s33.6-7.1,45.1-18.7S195.8,149.6,195.8,132z"/>
	<g>
		<g>
			<g>
				<g>
					<path class="st2" d="M100.5,91.3c0.4,0.5,0.9,0.8,1.5,1c0.5,0.1,1.1,0,1.6-0.3c0.2-0.1,0.3-0.3,0.4-0.4
						c0.1-0.2,0.2-0.4,0.3-0.6c0,0,0,0,0-0.1c0,0,0,0,0.1,0c0.1,0,0.1-0.1,0.2,0c0.1,0,0.2,0.1,0.2,0.1c0,0.1,0.1,0.1,0.1,0.2
						s0,0.2,0,0.3c-0.1,0.3-0.2,0.5-0.4,0.7c-0.2,0.2-0.3,0.4-0.5,0.5c-0.7,0.5-1.4,0.6-2.2,0.5c-0.7-0.1-1.5-0.6-2-1.3
						c-0.5-0.7-0.7-1.5-0.6-2.3c0.1-0.7,0.5-1.4,1.1-1.9c0.2-0.1,0.3-0.2,0.5-0.3c0.2-0.1,0.4-0.2,0.6-0.2c0.1,0,0.2,0,0.3,0
						c0.1,0,0.2,0.1,0.2,0.1c0.1,0.1,0.1,0.2,0.1,0.3c0,0.1-0.1,0.2-0.1,0.2c0,0,0,0,0,0s0,0-0.1,0c-0.2,0-0.4,0.1-0.6,0.2
						c-0.2,0.1-0.4,0.2-0.5,0.3c-0.5,0.3-0.7,0.8-0.8,1.4C99.9,90.1,100.1,90.7,100.5,91.3z"/>
					<path class="st2" d="M111.6,84.5c0.4,0.7,0.5,1.5,0.3,2.2c-0.1,0.7-0.6,1.3-1.3,1.7c-0.8,0.4-1.5,0.3-2.2,0
						c-0.7-0.3-1.2-0.9-1.6-1.7c-0.4-0.7-0.5-1.5-0.4-2.2c0.1-0.7,0.6-1.4,1.3-1.7c0.8-0.4,1.5-0.3,2.2,0.1
						C110.7,83.2,111.3,83.8,111.6,84.5z M107.6,86.3c0.2,0.5,0.6,1,1.1,1.3s1,0.4,1.6,0.2c0.6-0.3,0.8-0.7,0.9-1.2s0-1.1-0.3-1.6
						c-0.2-0.5-0.6-1-1.1-1.3s-1-0.4-1.6-0.2c-0.6,0.3-0.8,0.7-0.9,1.2C107.3,85.3,107.4,85.8,107.6,86.3z"/>
					<path class="st2" d="M115.3,80.1c0-0.2,0-0.3,0-0.4c0-0.1,0.1-0.2,0.3-0.2c0.1,0,0.2,0,0.3,0c0.1,0.1,0.1,0.2,0.2,0.3l0,0.2
						l0,0.2c0.1-0.3,0.2-0.6,0.5-0.8c0.2-0.2,0.5-0.4,0.8-0.5c0.3-0.1,0.7-0.1,1,0.1s0.6,0.4,0.8,0.7c0.1-0.4,0.3-0.7,0.6-1
						c0.3-0.3,0.6-0.5,1-0.6c0.5-0.1,1.1-0.1,1.5,0.2c0.4,0.2,0.8,0.7,0.9,1.2l0.4,1.9l0.4,1.9c0,0.1,0,0.2,0,0.3
						c0,0.1-0.1,0.1-0.3,0.2c-0.1,0-0.2,0-0.3,0s-0.1-0.1-0.2-0.3l-0.4-1.7l-0.4-1.7c-0.1-0.4-0.3-0.7-0.6-0.9
						c-0.3-0.2-0.6-0.3-1-0.2c-0.4,0.1-0.8,0.4-1,0.7s-0.2,0.8-0.1,1.3l0.4,1.6l0.4,1.6c0,0.1,0,0.2,0,0.3c0,0.1-0.1,0.1-0.3,0.2
						c-0.1,0-0.2,0-0.3,0c-0.1,0-0.1-0.1-0.2-0.3l-0.4-1.7l-0.4-1.7c-0.1-0.4-0.3-0.7-0.6-0.9c-0.3-0.2-0.6-0.3-1-0.2
						c-0.4,0.1-0.8,0.4-1,0.7c-0.2,0.4-0.2,0.8-0.1,1.2l0.4,1.6l0.4,1.6c0,0.1,0,0.2,0,0.3c0,0.1-0.1,0.1-0.3,0.2
						c-0.1,0-0.2,0-0.3,0c-0.1,0-0.1-0.1-0.2-0.3l-0.6-2.5L115.3,80.1z"/>
					<path class="st2" d="M133.3,79.8c0,0.3,0,0.5-0.1,0.7c-0.1,0.1-0.2,0.2-0.5,0.2l-1.8,0l-1.8,0c0,0.5,0.3,1,0.6,1.3
						c0.4,0.4,0.9,0.6,1.3,0.6c0.3,0,0.5,0,0.8-0.1c0.2-0.1,0.4-0.2,0.7-0.4c0.1-0.1,0.1-0.1,0.2-0.1s0.2-0.1,0.2-0.1
						c0.1,0,0.2,0,0.3,0.1c0.1,0.1,0.1,0.2,0.1,0.3c0,0,0,0.1,0,0.1c0,0,0,0.1-0.1,0.1c-0.2,0.3-0.6,0.6-0.9,0.7
						c-0.4,0.2-0.8,0.3-1.3,0.3c-0.9,0-1.6-0.3-2.1-0.9c-0.5-0.6-0.7-1.4-0.8-2.2c0-0.8,0.2-1.6,0.6-2.2c0.4-0.6,1.1-1,1.9-1
						c0.8,0,1.4,0.3,1.9,0.7C133,78.3,133.3,79,133.3,79.8z M132.5,79.9c0-0.6-0.2-1-0.5-1.4s-0.7-0.6-1.2-0.6c-0.5,0-1,0.2-1.3,0.6
						s-0.5,0.9-0.5,1.4l1.7,0L132.5,79.9z"/>
					<path class="st2" d="M138.6,78c0-0.1,0.1-0.2,0.1-0.3s0.2-0.1,0.3-0.1c0.1,0,0.2,0.1,0.3,0.2c0.1,0.1,0.1,0.2,0,0.3l0,0.3
						l0,0.3c0.3-0.3,0.6-0.5,0.9-0.6c0.4-0.1,0.7-0.1,1.1-0.1c0.3,0,0.5,0.1,0.6,0.3c0.1,0.1,0.1,0.2,0.1,0.4c0,0.1-0.1,0.2-0.2,0.3
						s-0.2,0.1-0.3,0.1c-0.1,0-0.2-0.1-0.3-0.1c-0.1,0-0.2-0.1-0.4-0.1c-0.3-0.1-0.8,0.1-1.1,0.3c-0.3,0.2-0.6,0.6-0.7,1l-0.3,1.7
						l-0.3,1.7c0,0.1-0.1,0.2-0.1,0.3c-0.1,0.1-0.2,0.1-0.3,0c-0.1,0-0.2-0.1-0.3-0.1c-0.1-0.1-0.1-0.2,0-0.3l0.4-2.6L138.6,78z"/>
					<path class="st2" d="M146.2,82.3c-0.2,0.6-0.2,1.2,0.1,1.7c0.2,0.5,0.6,0.9,1.2,1.1c0.2,0.1,0.4,0.1,0.6,0.1
						c0.2,0,0.4,0,0.7-0.1c0,0,0.1,0,0.1,0c0,0,0,0,0.1,0c0.1,0,0.1,0.1,0.2,0.2c0,0.1,0.1,0.2,0,0.3c0,0.1-0.1,0.1-0.1,0.2
						c-0.1,0-0.1,0.1-0.2,0.1c-0.3,0.1-0.5,0.1-0.8,0.1c-0.3,0-0.5-0.1-0.7-0.1c-0.8-0.3-1.3-0.8-1.7-1.5c-0.3-0.7-0.4-1.5-0.1-2.4
						c0.3-0.9,0.8-1.5,1.5-1.8c0.7-0.3,1.4-0.4,2.2-0.2c0.2,0.1,0.4,0.1,0.6,0.2s0.4,0.2,0.6,0.4c0.1,0.1,0.2,0.2,0.2,0.3
						c0,0.1,0.1,0.2,0,0.2c0,0.1-0.1,0.2-0.2,0.2c-0.1,0-0.2,0.1-0.3,0c0,0,0,0,0,0c0,0,0,0,0,0c-0.1-0.1-0.3-0.2-0.5-0.3
						c-0.2-0.1-0.4-0.2-0.6-0.3c-0.5-0.2-1.1-0.1-1.6,0.1C146.8,81.2,146.4,81.6,146.2,82.3z"/>
					<path class="st2" d="M155.2,82.8c0.1-0.1,0.1-0.2,0.2-0.2c0.1,0,0.2,0,0.3,0c0.1,0.1,0.2,0.1,0.2,0.2c0,0.1,0,0.2,0,0.3
						l-1.2,2.4l-1.2,2.4c-0.1,0.1-0.1,0.2-0.2,0.2c-0.1,0-0.2,0-0.3-0.1c-0.1-0.1-0.2-0.1-0.2-0.2c0-0.1,0-0.2,0-0.3l1.2-2.4
						L155.2,82.8z M156.8,80.6c0.1,0.1,0.2,0.2,0.3,0.3c0,0.1,0,0.3,0,0.4c-0.1,0.1-0.2,0.2-0.3,0.3c-0.1,0-0.3,0-0.4,0
						c-0.1-0.1-0.2-0.2-0.3-0.3c0-0.1,0-0.3,0-0.4c0.1-0.1,0.2-0.2,0.3-0.3C156.5,80.5,156.7,80.5,156.8,80.6z"/>
					<path class="st2" d="M163.3,91.1c-0.5,0.7-1.1,1.1-1.8,1.4c-0.7,0.2-1.4,0.1-2.1-0.4c-0.7-0.5-1-1.2-1-1.9s0.3-1.5,0.7-2.2
						c0.5-0.7,1.1-1.2,1.8-1.4s1.5-0.2,2.2,0.4c0.7,0.5,1,1.2,1,2C164,89.6,163.7,90.4,163.3,91.1z M159.8,88.4
						c-0.3,0.4-0.6,1-0.6,1.6c0,0.6,0.1,1.1,0.6,1.5c0.5,0.4,1,0.4,1.5,0.2c0.5-0.2,0.9-0.6,1.3-1c0.3-0.4,0.6-1,0.6-1.6
						c0.1-0.6-0.1-1.1-0.6-1.5c-0.5-0.4-1-0.4-1.5-0.2C160.6,87.5,160.1,87.9,159.8,88.4z"/>
				</g>
				<g>
					<g>
						<path class="st2" d="M113.2,183.3c-0.2,0.6-0.5,1-0.8,1.3s-0.8,0.3-1.4,0.1c-0.1-0.1-0.2-0.1-0.3-0.2s-0.1-0.2,0-0.3
							c0-0.1,0.1-0.2,0.2-0.2c0.1,0,0.2,0,0.4,0c0.3,0.1,0.6,0.1,0.7-0.1c0.2-0.2,0.3-0.5,0.4-0.9l1.1-3l1.1-3
							c0-0.1,0.1-0.2,0.2-0.2c0.1,0,0.2,0,0.3,0c0.1,0,0.2,0.1,0.2,0.2c0,0.1,0,0.2,0,0.3l-1.1,3L113.2,183.3z M115.2,175
							c-0.1,0.1,0,0.3,0,0.4c0.1,0.1,0.2,0.2,0.3,0.3c0.1,0.1,0.3,0,0.4,0c0.1-0.1,0.2-0.2,0.3-0.3c0.1-0.1,0-0.3,0-0.4
							c-0.1-0.1-0.2-0.2-0.3-0.3c-0.1-0.1-0.3,0-0.4,0C115.4,174.7,115.3,174.8,115.2,175z"/>
						<path class="st2" d="M119.8,182c-0.2,0.8-0.1,1.3,0.1,1.7s0.5,0.5,0.9,0.5c0.4,0.1,0.9,0,1.3-0.4c0.4-0.3,0.7-0.9,0.9-1.6
							l0.3-1.3l0.3-1.3c0-0.1,0.1-0.2,0.1-0.3c0.1-0.1,0.2-0.1,0.3-0.1c0.1,0,0.2,0.1,0.3,0.2c0,0.1,0.1,0.2,0,0.3l-0.5,2.7
							l-0.5,2.7c0,0.1-0.1,0.2-0.1,0.2c-0.1,0-0.2,0.1-0.3,0c-0.1,0-0.2-0.1-0.3-0.1c-0.1-0.1-0.1-0.2,0-0.3l0.1-0.4l0.1-0.4
							c-0.3,0.3-0.6,0.6-1,0.7c-0.3,0.1-0.7,0.1-1,0.1c-0.5-0.1-1-0.4-1.3-0.8c-0.3-0.5-0.4-1.1-0.3-2l0.3-1.7l0.3-1.7
							c0-0.1,0.1-0.2,0.2-0.3c0.1-0.1,0.2-0.1,0.3,0c0.1,0,0.2,0.1,0.3,0.2c0.1,0.1,0.1,0.2,0,0.3l-0.3,1.5L119.8,182z"/>
						<path class="st2" d="M130.4,185.3c0.3,0,0.6,0,0.9-0.2s0.5-0.4,0.5-0.7c0-0.3-0.2-0.5-0.4-0.6c-0.2-0.2-0.5-0.3-0.8-0.4
							c-0.5-0.2-1-0.4-1.4-0.7s-0.7-0.6-0.7-1.1c0-0.6,0.3-1,0.7-1.3c0.4-0.3,1-0.4,1.5-0.4c0.3,0,0.6,0,0.9,0.1
							c0.3,0.1,0.6,0.2,0.8,0.3c0.1,0,0.1,0.1,0.2,0.2c0,0.1,0,0.1,0,0.2c0,0.1,0,0.2-0.1,0.3c-0.1,0.1-0.2,0.1-0.3,0.1
							c0,0-0.1,0-0.1,0c0,0-0.1,0-0.1-0.1c-0.1-0.1-0.3-0.2-0.6-0.2c-0.2-0.1-0.5-0.1-0.7-0.1c-0.3,0-0.6,0-0.9,0.2
							s-0.4,0.3-0.4,0.7c0,0.2,0.2,0.4,0.5,0.6s0.7,0.3,1.1,0.5c0.4,0.2,0.9,0.4,1.2,0.7c0.3,0.3,0.6,0.6,0.5,1.1
							c0,0.7-0.3,1.1-0.7,1.4c-0.4,0.3-1,0.4-1.5,0.4c-0.4,0-0.7-0.1-1.1-0.2s-0.6-0.3-0.9-0.5c0,0-0.1-0.1-0.1-0.1
							c0-0.1,0-0.1,0-0.2c0-0.2,0-0.3,0.1-0.3c0.1-0.1,0.2-0.1,0.3-0.1c0,0,0.1,0,0.2,0c0.1,0,0.1,0.1,0.2,0.1
							c0.2,0.1,0.4,0.3,0.7,0.3C129.8,185.2,130.1,185.3,130.4,185.3z"/>
						<path class="st2" d="M137.4,178.9c0-0.1,0-0.2,0.1-0.3s0.1-0.1,0.3-0.1c0.1,0,0.2,0,0.3,0.1c0.1,0.1,0.1,0.1,0.1,0.3l0.1,0.4
							l0.1,0.4l0.5-0.1l0.5-0.1c0.1,0,0.2,0,0.3,0s0.1,0.1,0.1,0.3c0,0.1,0,0.2-0.1,0.3c-0.1,0.1-0.2,0.1-0.3,0.1l-0.5,0.1l-0.5,0.1
							l0.2,1.6l0.2,1.6c0.1,0.4,0.1,0.7,0.3,0.9c0.1,0.2,0.3,0.3,0.7,0.2c0.2,0,0.3,0,0.4,0c0.1,0,0.1,0.1,0.2,0.2
							c0,0.1,0,0.2-0.1,0.3s-0.2,0.1-0.3,0.1c-0.6,0.1-1.1,0-1.3-0.4c-0.3-0.3-0.4-0.8-0.5-1.4l-0.2-1.6l-0.2-1.6l-0.2,0l-0.2,0
							c-0.1,0-0.2,0-0.3,0s-0.1-0.1-0.1-0.3c0-0.1,0-0.2,0-0.3c0-0.1,0.1-0.1,0.2-0.1l0.2,0l0.2,0l-0.1-0.4L137.4,178.9z"/>
						<path class="st2" d="M149.3,180.1c0.2,0.8,0.3,1.6,0,2.2c-0.3,0.7-0.8,1.2-1.6,1.5c-0.8,0.3-1.6,0.1-2.2-0.3
							c-0.6-0.4-1-1.1-1.3-1.9c-0.2-0.8-0.3-1.6,0-2.3c0.2-0.7,0.8-1.3,1.6-1.5c0.8-0.3,1.6-0.1,2.2,0.4S149.1,179.3,149.3,180.1z
							 M145.1,181.3c0.2,0.5,0.5,1.1,0.9,1.5c0.4,0.4,0.9,0.6,1.5,0.4c0.6-0.2,0.9-0.6,1.1-1.1s0.1-1.1-0.1-1.6
							c-0.2-0.5-0.5-1.1-0.9-1.5c-0.4-0.4-1-0.6-1.5-0.4c-0.6,0.2-0.9,0.6-1.1,1.1C144.9,180.1,144.9,180.7,145.1,181.3z"/>
					</g>
				</g>
			</g>
			<g>
				<path class="st0" d="M176.9,106.2c2.2,3.8,3.9,7.9,5.1,12.2s1.8,8.9,1.8,13.6c0,6.4-1.2,12.5-3.3,18.1c-2.1,5.7-5.2,10.8-9,15.4
					"/>
				<path class="st0" d="M92.5,165.5c-3.8-4.5-6.9-9.7-9-15.4c-2.1-5.7-3.3-11.8-3.3-18.1c0-4.8,0.6-9.4,1.8-13.7
					c1.2-4.4,3-8.5,5.2-12.4"/>
			</g>
		</g>
		<g>
			<g>
				<g>
					<path class="st0" d="M165.9,114.7c0,0-1.3-0.3-3.4-1.2s-4.7-2.5-7.4-5c-2.7-2.6-5.7-4.1-8.7-5c-2.9-0.9-5.7-1.1-7.9-1.2
						c-2.2-0.1-5.9-0.3-9.2-0.3s-6.1,0.2-6.7,0.9c-0.6,0.7-0.6,1.5-0.3,2.2c0.3,0.7,1.1,1.2,2.1,1.5c1,0.3,4.2,0.6,7.2,0.8
						c3,0.2,5.7,0.4,5.7,0.4"/>
					<path class="st0" d="M165.9,126.6h-5.1h-5.1c0,0-1.5,0.2-3.4-0.4s-4.1-2-5.5-5.1c-1.6-3.5-4.4-5.6-6.7-7.4s-3.9-3.1-3.3-5.1
						c0.7-2,3.6-1.5,6.8,0.1c3.2,1.6,6.8,4.4,8.8,6.9"/>
				</g>
				<g>
					<path class="st0" d="M97.9,147.6c0,0,1.3,0.3,3.4,1.2c2,0.9,4.7,2.5,7.4,5c2.7,2.6,5.7,4.1,8.7,5s5.7,1.1,7.9,1.2
						c2.2,0.1,5.9,0.3,9.2,0.3s6.1-0.2,6.7-0.9c0.6-0.7,0.6-1.5,0.3-2.2s-1.1-1.2-2.1-1.5c-1-0.3-4.2-0.6-7.2-0.8
						c-3-0.2-5.7-0.4-5.7-0.4"/>
					<path class="st0" d="M97.9,135.7l5.1,0l5.1,0c0,0,1.5-0.2,3.4,0.4c1.9,0.6,4.1,2,5.5,5.1c1.6,3.5,4.4,5.6,6.7,7.4
						c2.3,1.7,3.9,3.1,3.3,5.1c-0.7,2-3.6,1.5-6.8-0.1c-3.2-1.6-6.8-4.4-8.8-6.9"/>
				</g>
			</g>
			<g>
				<path class="st0" d="M145.3,131.2c0-3.7-1.5-7.1-4-9.6s-5.8-4-9.6-4c-3.7,0-7.1,1.5-9.6,4c-2.4,2.4-4,5.8-4,9.6
					c0,3.7,1.5,7.1,4,9.6c2.4,2.4,5.8,4,9.6,4c3.7,0,7.1-1.5,9.6-4S145.3,134.9,145.3,131.2z"/>
				<g>
					<g>
						<polyline class="st0" points="131.8,117.6 131.8,131.2 131.8,144.7 						"/>
						<path class="st0" d="M129.9,144.5c0,0-1.1-1-2.2-3.1c-1.1-2.2-2.2-5.5-2.2-10.3c0-4.8,1.1-8.1,2.2-10.3
							c1.1-2.2,2.2-3.1,2.2-3.1"/>
						<path class="st0" d="M133.9,144.5c0,0,1.1-1,2.2-3.1c1.1-2.2,2.2-5.5,2.2-10.3c0-4.8-1.1-8.1-2.2-10.3
							c-1.1-2.2-2.2-3.1-2.2-3.1"/>
					</g>
					<g>
						<polyline class="st0" points="118.3,131.2 131.8,131.2 145.3,131.2 						"/>
						<path class="st0" d="M142.3,139.8c-1.1-0.6-2.5-1.2-4.2-1.6c-1.7-0.4-3.8-0.7-6.3-0.7c-2.4,0-4.4,0.3-6.1,0.7s-3.1,1-4.2,1.5"
							/>
						<path class="st0" d="M121.5,123.2c1.1,0.6,2.5,1.2,4.2,1.6c1.7,0.4,3.8,0.7,6.3,0.7c2.4,0,4.4-0.3,6.1-0.7
							c1.7-0.4,3.1-1,4.2-1.5"/>
					</g>
				</g>
			</g>
		</g>
	</g>
</g>
</svg>
