<?xml version="1.0" encoding="utf-8"?>
<!-- Generator: Adobe Illustrator 25.4.1, SVG Export Plug-In . SVG Version: 6.00 Build 0)  -->
<svg version="1.1" id="Capa_1" xmlns="http://www.w3.org/2000/svg" xmlns:xlink="http://www.w3.org/1999/xlink" x="0px" y="0px"
	 viewBox="0 0 264 264" style="enable-background:new 0 0 264 264;" xml:space="preserve">
<style type="text/css">
	.st0{fill:none;stroke:#605540;stroke-width:1.5;stroke-linecap:round;stroke-linejoin:round;stroke-miterlimit:10;}
	.st1{fill:none;stroke:#605540;stroke-width:1.5;stroke-miterlimit:10;}
	.st2{fill:#605540;}
</style>
<g>
	<g>
		<path class="st0" d="M178.3,104.5c2.2,3.8,3.9,7.9,5.1,12.2s1.8,8.9,1.8,13.6c0,6.4-1.2,12.5-3.3,18.1c-2.1,5.7-5.2,10.8-9,15.4"
			/>
		<path class="st0" d="M93.9,163.8c-3.8-4.5-6.9-9.7-9-15.4c-2.1-5.7-3.3-11.8-3.3-18.1c0-4.8,0.6-9.4,1.8-13.7
			c1.2-4.4,3-8.5,5.2-12.4"/>
	</g>
	<g>
		<path class="st1" d="M196.2,132c0-17.7-7.2-33.8-18.8-45.4S149.7,67.8,132,67.8S98.2,75,86.6,86.6S67.8,114.3,67.8,132
			s7.2,33.8,18.8,45.4c11.6,11.6,27.7,18.8,45.4,18.8s33.8-7.2,45.4-18.8C189,165.8,196.2,149.7,196.2,132z"/>
		<g>
			<g>
				<g>
					<g>
						<path class="st2" d="M110.1,83.4l-0.2,0.1l-0.2,0.1c-0.1,0.1-0.2,0.1-0.3,0c-0.1,0-0.2-0.1-0.2-0.2c-0.1-0.1-0.1-0.2,0-0.3
							c0-0.1,0.1-0.2,0.3-0.2l0.2-0.1l0.2-0.1c-0.3-0.6-0.4-1.1-0.3-1.5c0.1-0.4,0.4-0.8,0.9-1c0.1-0.1,0.3-0.1,0.4-0.1
							c0.1,0,0.2,0.1,0.2,0.2c0,0.1,0,0.2,0,0.3c0,0.1-0.1,0.2-0.3,0.2c-0.3,0.1-0.4,0.3-0.4,0.5s0.1,0.6,0.2,1
							c0.1,0,0.1-0.1,0.2-0.1s0.2-0.1,0.4-0.2c0.1-0.1,0.3-0.1,0.3,0c0.1,0,0.2,0.1,0.2,0.2c0.1,0.1,0.1,0.2,0,0.3
							c0,0.1-0.1,0.2-0.3,0.2l-0.3,0.1l-0.3,0.1l1,2.2l1,2.2c0.1,0.1,0.1,0.2,0,0.3s-0.1,0.2-0.2,0.2c-0.1,0.1-0.2,0.1-0.3,0
							c-0.1,0-0.2-0.1-0.2-0.2l-1-2.2L110.1,83.4z"/>
						<path class="st2" d="M115.8,77.8c0.1,0,0.3,0,0.4,0c0.1,0.1,0.2,0.2,0.3,0.3c0,0.1,0,0.3,0,0.4c-0.1,0.1-0.2,0.2-0.3,0.3
							c-0.1,0-0.3,0-0.4,0c-0.1-0.1-0.2-0.2-0.3-0.3c0-0.1,0-0.3,0-0.4C115.5,77.9,115.6,77.8,115.8,77.8z M116.2,80.5
							c0-0.1,0-0.2,0-0.3s0.1-0.1,0.3-0.2c0.1,0,0.2,0,0.3,0s0.2,0.1,0.2,0.3l0.7,2.6l0.7,2.6c0,0.1,0,0.2,0,0.3
							c0,0.1-0.1,0.1-0.3,0.2c-0.1,0-0.2,0-0.3,0c-0.1,0-0.1-0.1-0.2-0.3l-0.7-2.6L116.2,80.5z"/>
						<path class="st2" d="M121.9,76.7c0-0.1,0-0.2,0.1-0.3c0.1-0.1,0.2-0.1,0.3-0.1c0.1,0,0.2,0,0.3,0.1c0.1,0.1,0.1,0.2,0.1,0.3
							l0.2,1.5l0.2,1.5c0.1-0.4,0.3-0.7,0.6-1s0.7-0.5,1-0.5c0.8-0.1,1.5,0.2,2,0.8c0.5,0.5,0.8,1.3,0.9,2.1c0.1,0.8,0,1.6-0.4,2.2
							s-0.9,1.1-1.8,1.2c-0.4,0-0.8,0-1.1-0.1s-0.6-0.4-0.8-0.7l0,0.3l0,0.3c0,0.1,0,0.2-0.1,0.3c-0.1,0.1-0.2,0.1-0.3,0.2
							c-0.1,0-0.2,0-0.3-0.1s-0.1-0.2-0.1-0.3l-0.5-3.8L121.9,76.7z M126.8,81.2c-0.1-0.5-0.3-1.1-0.6-1.6c-0.3-0.4-0.8-0.7-1.4-0.7
							c-0.6,0.1-1,0.5-1.3,0.9c-0.2,0.5-0.3,1.1-0.2,1.7c0.1,0.6,0.3,1.2,0.6,1.6c0.3,0.4,0.8,0.7,1.5,0.6c0.6-0.1,1-0.4,1.2-0.9
							C126.8,82.3,126.8,81.7,126.8,81.2z"/>
						<path class="st2" d="M132.3,78.2c0-0.1,0-0.2,0.1-0.3s0.2-0.1,0.3-0.1c0.1,0,0.2,0,0.3,0.1s0.1,0.2,0.1,0.3l0,0.3l0,0.3
							c0.2-0.3,0.5-0.6,0.9-0.8c0.3-0.2,0.7-0.2,1.1-0.2c0.3,0,0.5,0.1,0.6,0.2c0.1,0.1,0.2,0.2,0.2,0.3c0,0.1-0.1,0.2-0.1,0.3
							c-0.1,0.1-0.2,0.1-0.3,0.1c-0.1,0-0.2,0-0.3-0.1c-0.1,0-0.2,0-0.4-0.1c-0.4,0-0.7,0.2-1.1,0.4s-0.5,0.7-0.6,1.1l-0.1,1.7
							l-0.1,1.7c0,0.1,0,0.2-0.1,0.3c-0.1,0.1-0.2,0.1-0.3,0.1c-0.1,0-0.2,0-0.3-0.1c-0.1-0.1-0.1-0.2-0.1-0.3l0.1-2.6L132.3,78.2z"
							/>
						<path class="st2" d="M142.8,78.8c0.7,0.1,1.2,0.5,1.5,0.9c0.3,0.4,0.4,0.9,0.3,1.5l-0.4,1.9l-0.4,1.9c0,0.1-0.1,0.2-0.2,0.3
							c-0.1,0.1-0.2,0.1-0.3,0.1c-0.1,0-0.2-0.1-0.3-0.2c-0.1-0.1-0.1-0.2,0-0.3s0-0.2,0-0.2c0-0.1,0-0.1,0-0.1
							c-0.3,0.2-0.6,0.3-0.9,0.4c-0.3,0.1-0.7,0.1-1,0c-0.5-0.1-1-0.4-1.3-0.7s-0.5-0.9-0.3-1.5c0.1-0.6,0.5-1,1-1.3
							s1.1-0.3,1.6-0.1c0.3,0.1,0.6,0.2,0.9,0.3c0.3,0.1,0.5,0.3,0.6,0.5l0.1-0.5l0.1-0.5c0.1-0.4,0-0.7-0.2-1
							c-0.2-0.3-0.6-0.5-1.1-0.6c-0.3-0.1-0.6-0.1-0.9-0.1c-0.3,0-0.5,0-0.6,0c-0.1,0-0.2-0.1-0.2-0.1s-0.1-0.2-0.1-0.3
							c0-0.1,0.1-0.1,0.1-0.2c0.1-0.1,0.2-0.1,0.3-0.1c0.3,0,0.5-0.1,0.8-0.1S142.5,78.8,142.8,78.8z M141.4,84.2
							c0.4,0.1,0.8,0.1,1.2-0.1c0.4-0.1,0.6-0.4,0.7-0.7c0.1-0.3-0.1-0.6-0.3-0.9s-0.6-0.4-1-0.5c-0.4-0.1-0.8-0.1-1.1,0.1
							c-0.3,0.1-0.5,0.4-0.6,0.7c-0.1,0.4,0,0.7,0.2,0.9C140.7,83.9,141,84.1,141.4,84.2z"/>
						<path class="st2" d="M150,86.7c0.3,0.1,0.6,0.2,0.9,0.1c0.3,0,0.6-0.2,0.7-0.5c0.1-0.2,0-0.5-0.1-0.8
							c-0.2-0.2-0.4-0.5-0.6-0.7c-0.4-0.4-0.8-0.8-1.1-1.2c-0.3-0.4-0.4-0.9-0.3-1.3c0.2-0.6,0.6-0.9,1.1-1c0.5-0.1,1,0,1.6,0.2
							c0.3,0.1,0.5,0.2,0.8,0.4s0.5,0.4,0.6,0.6c0.1,0.1,0.1,0.1,0.1,0.2c0,0.1,0,0.2,0,0.2c0,0.1-0.1,0.2-0.2,0.2
							c-0.1,0-0.2,0-0.3,0c0,0-0.1,0-0.1-0.1s-0.1-0.1-0.1-0.1c-0.1-0.1-0.2-0.3-0.4-0.4s-0.4-0.3-0.7-0.4c-0.3-0.1-0.6-0.2-0.9-0.2
							c-0.3,0-0.5,0.2-0.6,0.5c-0.1,0.2,0,0.5,0.3,0.8s0.6,0.6,0.9,0.9c0.3,0.3,0.7,0.7,0.9,1.1s0.3,0.8,0.1,1.2
							c-0.3,0.6-0.7,0.9-1.2,1c-0.5,0.1-1.1,0-1.6-0.2c-0.4-0.1-0.7-0.3-0.9-0.6c-0.3-0.2-0.5-0.5-0.7-0.8c0,0,0-0.1,0-0.2
							c0-0.1,0-0.1,0-0.2c0.1-0.1,0.1-0.2,0.2-0.3c0.1,0,0.2,0,0.3,0c0,0,0.1,0,0.1,0.1c0,0,0.1,0.1,0.1,0.1
							c0.1,0.2,0.3,0.4,0.5,0.6C149.5,86.4,149.8,86.6,150,86.7z"/>
					</g>
					<g>
						<g>
							<path class="st2" d="M98.8,168.7c0.1-0.1,0.2-0.2,0.3-0.2c0.1,0,0.2,0,0.3,0.1c0.1,0.1,0.2,0.2,0.2,0.3c0,0.1,0,0.2-0.1,0.3
								l-0.1,0.2l-0.1,0.2c0.3-0.1,0.7-0.2,1-0.1c0.3,0.1,0.6,0.2,0.9,0.4c0.4,0.3,0.7,0.8,0.8,1.3c0.1,0.5,0,1.1-0.4,1.6l-1.2,1.5
								l-1.2,1.5c-0.1,0.1-0.2,0.2-0.3,0.2s-0.2,0-0.3-0.1c-0.1-0.1-0.2-0.2-0.2-0.3c0-0.1,0-0.2,0.1-0.3l1.1-1.3l1.1-1.3
								c0.3-0.4,0.5-0.9,0.4-1.2c0-0.4-0.2-0.7-0.5-0.9c-0.3-0.2-0.7-0.4-1.1-0.3c-0.4,0-0.8,0.2-1.1,0.7l-1.1,1.3l-1.1,1.3
								c-0.1,0.1-0.2,0.2-0.3,0.2s-0.2,0-0.3-0.1c-0.1-0.1-0.2-0.2-0.2-0.3c0-0.1,0-0.2,0.1-0.3l1.7-2.1L98.8,168.7z"/>
							<path class="st2" d="M108.4,174.8c0.6,0.3,1,0.8,1.2,1.3s0.1,1-0.2,1.5l-0.9,1.7l-0.9,1.7c0,0.1-0.1,0.2-0.2,0.2
								s-0.2,0-0.3,0c-0.1-0.1-0.2-0.1-0.2-0.2c0-0.1,0-0.2,0-0.3c0-0.1,0.1-0.2,0.1-0.2c0,0,0-0.1,0.1-0.1c-0.3,0.1-0.7,0.1-1,0.1
								c-0.3,0-0.7-0.1-1-0.3c-0.5-0.3-0.9-0.6-1.1-1.1c-0.2-0.4-0.2-1,0.1-1.5c0.3-0.6,0.8-0.8,1.3-0.9c0.5-0.1,1.1,0,1.6,0.3
								c0.3,0.1,0.5,0.3,0.7,0.6c0.2,0.2,0.4,0.5,0.4,0.7l0.2-0.5l0.2-0.5c0.2-0.3,0.2-0.7,0-1c-0.1-0.3-0.4-0.6-0.9-0.9
								c-0.3-0.2-0.6-0.2-0.8-0.3c-0.2-0.1-0.5-0.1-0.6-0.2c-0.1,0-0.2-0.1-0.2-0.2s0-0.2,0-0.3c0-0.1,0.1-0.1,0.2-0.2
								c0.1,0,0.2-0.1,0.3,0c0.3,0,0.5,0.1,0.8,0.2C107.7,174.5,108,174.7,108.4,174.8z M105.5,179.5c0.4,0.2,0.8,0.3,1.2,0.3
								s0.7-0.2,0.9-0.5c0.2-0.3,0.1-0.6-0.1-0.9c-0.2-0.3-0.5-0.6-0.9-0.8c-0.3-0.2-0.7-0.3-1-0.2c-0.3,0-0.6,0.2-0.8,0.5
								c-0.2,0.3-0.2,0.7,0,1C104.9,179.1,105.2,179.4,105.5,179.5z"/>
							<path class="st2" d="M115.2,177.1c0-0.1,0.1-0.2,0.2-0.2c0.1,0,0.2,0,0.3,0c0.1,0,0.2,0.1,0.3,0.2c0,0.1,0,0.2,0,0.3
								l-0.1,0.4l-0.1,0.4l0.5,0.2l0.5,0.2c0.1,0,0.2,0.1,0.3,0.2c0,0.1,0.1,0.2,0,0.3c0,0.1-0.1,0.2-0.2,0.2c-0.1,0-0.2,0-0.3,0
								l-0.5-0.2l-0.5-0.2l-0.5,1.6l-0.5,1.6c-0.1,0.4-0.2,0.7-0.2,1c0,0.2,0.2,0.4,0.5,0.5c0.1,0,0.3,0.1,0.3,0.2
								c0.1,0.1,0.1,0.2,0,0.3c0,0.1-0.1,0.2-0.2,0.2s-0.2,0-0.4,0c-0.6-0.2-0.9-0.5-1-0.9s0-0.9,0.2-1.5l0.5-1.6l0.5-1.6l-0.2-0.1
								l-0.2-0.1c-0.1,0-0.2-0.1-0.2-0.2c0-0.1,0-0.2,0-0.3c0-0.1,0.1-0.2,0.2-0.2c0.1,0,0.2,0,0.3,0l0.2,0.1l0.2,0.1l0.1-0.4
								L115.2,177.1z"/>
							<path class="st2" d="M121.4,183.3c-0.1,0.8,0,1.3,0.2,1.7c0.2,0.3,0.5,0.4,0.9,0.5c0.4,0.1,0.9-0.1,1.2-0.4
								c0.4-0.3,0.7-0.9,0.8-1.6l0.2-1.3l0.2-1.3c0-0.1,0.1-0.2,0.1-0.3s0.2-0.1,0.3-0.1c0.1,0,0.2,0.1,0.3,0.2
								c0.1,0.1,0.1,0.2,0,0.3l-0.4,2.7l-0.4,2.7c0,0.1-0.1,0.2-0.1,0.3s-0.2,0.1-0.3,0c-0.1,0-0.2-0.1-0.3-0.1
								c-0.1-0.1-0.1-0.2-0.1-0.3l0.1-0.4l0.1-0.4c-0.3,0.3-0.6,0.6-0.9,0.7c-0.3,0.1-0.7,0.2-1,0.1c-0.5-0.1-1-0.3-1.3-0.8
								c-0.3-0.4-0.5-1.1-0.3-2l0.3-1.7l0.3-1.7c0-0.1,0.1-0.2,0.1-0.3c0.1-0.1,0.2-0.1,0.3-0.1c0.1,0,0.2,0.1,0.3,0.1
								c0.1,0.1,0.1,0.2,0.1,0.3l-0.2,1.5L121.4,183.3z"/>
							<path class="st2" d="M129.9,181.3c0-0.1,0-0.2,0.1-0.3c0.1-0.1,0.2-0.1,0.3-0.1c0.1,0,0.2,0,0.3,0.1c0.1,0.1,0.1,0.2,0.1,0.3
								l0,0.3l0,0.3c0.2-0.4,0.5-0.6,0.8-0.8s0.7-0.3,1.1-0.3c0.3,0,0.5,0.1,0.6,0.2s0.2,0.2,0.2,0.3c0,0.1,0,0.2-0.1,0.3
								c-0.1,0.1-0.2,0.1-0.3,0.1c-0.1,0-0.2,0-0.3,0c-0.1,0-0.2,0-0.4,0c-0.4,0-0.7,0.2-1,0.5c-0.3,0.3-0.5,0.7-0.5,1.1l0,1.7
								l0,1.7c0,0.1,0,0.2-0.1,0.3c-0.1,0.1-0.2,0.1-0.3,0.1c-0.1,0-0.2,0-0.3-0.1s-0.1-0.2-0.1-0.3l0-2.7L129.9,181.3z"/>
							<path class="st2" d="M139.5,180.1c0.7-0.1,1.3,0,1.7,0.3c0.4,0.3,0.7,0.7,0.8,1.3l0.3,1.9l0.3,1.9c0,0.1,0,0.2-0.1,0.3
								c-0.1,0.1-0.1,0.2-0.3,0.2c-0.1,0-0.2,0-0.3-0.1s-0.1-0.2-0.2-0.3c0-0.1,0-0.2,0-0.2s0-0.1,0-0.1c-0.2,0.3-0.4,0.5-0.7,0.7
								c-0.3,0.2-0.6,0.3-1,0.4c-0.5,0.1-1.1,0-1.5-0.2c-0.4-0.2-0.8-0.6-0.9-1.2c-0.1-0.6,0.1-1.1,0.5-1.5c0.4-0.4,0.9-0.6,1.5-0.7
								c0.3-0.1,0.6-0.1,0.9,0c0.3,0,0.6,0.1,0.8,0.3l-0.1-0.5l-0.1-0.5c-0.1-0.4-0.3-0.7-0.6-0.8s-0.7-0.2-1.2-0.1
								c-0.3,0.1-0.6,0.2-0.9,0.3c-0.2,0.1-0.4,0.2-0.6,0.2c-0.1,0-0.2,0-0.3,0c-0.1,0-0.1-0.1-0.2-0.2c0-0.1,0-0.2,0-0.2
								c0-0.1,0.1-0.2,0.2-0.2c0.2-0.1,0.5-0.3,0.7-0.4S139.2,180.2,139.5,180.1z M140.1,185.6c0.4-0.1,0.8-0.2,1.1-0.5
								s0.5-0.6,0.4-1c-0.1-0.3-0.3-0.5-0.6-0.7c-0.3-0.1-0.8-0.1-1.1-0.1c-0.4,0.1-0.7,0.2-1,0.4c-0.2,0.2-0.4,0.5-0.3,0.9
								c0.1,0.4,0.3,0.6,0.6,0.8C139.4,185.6,139.8,185.7,140.1,185.6z"/>
							<path class="st2" d="M145.3,176.8c0-0.1,0-0.2,0-0.3c0-0.1,0.1-0.2,0.2-0.2c0.1,0,0.2,0,0.3,0c0.1,0,0.2,0.1,0.2,0.3l1.2,3.6
								l1.2,3.6c0,0.1,0,0.2,0,0.3c0,0.1-0.1,0.1-0.3,0.2c-0.1,0-0.2,0-0.3,0c-0.1,0-0.1-0.1-0.2-0.3l-1.2-3.6L145.3,176.8z"/>
							<path class="st2" d="M156.7,177c0.1,0.3,0.2,0.5,0.2,0.6c0,0.2-0.1,0.3-0.3,0.4l-1.6,0.8l-1.6,0.8c0.2,0.4,0.7,0.8,1.2,0.9
								c0.5,0.2,1,0.2,1.5-0.1c0.3-0.1,0.5-0.3,0.6-0.5c0.2-0.2,0.3-0.4,0.4-0.7c0-0.1,0.1-0.2,0.1-0.2c0.1-0.1,0.1-0.1,0.2-0.2
								c0.1,0,0.2-0.1,0.3,0c0.1,0,0.2,0.1,0.2,0.2c0,0,0,0.1,0,0.1c0,0,0,0.1,0,0.1c-0.1,0.4-0.3,0.8-0.5,1.1
								c-0.3,0.3-0.6,0.6-1,0.8c-0.8,0.4-1.6,0.4-2.3,0.1c-0.7-0.3-1.3-0.9-1.7-1.7c-0.4-0.7-0.5-1.5-0.4-2.3
								c0.1-0.7,0.5-1.4,1.3-1.8c0.7-0.4,1.4-0.4,2-0.2C155.8,175.8,156.3,176.3,156.7,177z M156,177.4c-0.3-0.5-0.6-0.9-1-1.1
								c-0.4-0.2-0.9-0.2-1.4,0c-0.5,0.2-0.8,0.6-0.9,1.1c-0.1,0.5-0.1,1,0.2,1.5l1.5-0.8L156,177.4z"/>
							<path class="st2" d="M164.4,175.3c0.2-0.2,0.5-0.4,0.6-0.7c0.1-0.3,0.1-0.6-0.1-0.9c-0.2-0.2-0.4-0.3-0.7-0.3
								s-0.6,0.1-0.9,0.2c-0.5,0.2-1.1,0.3-1.6,0.4c-0.5,0-1-0.1-1.2-0.4c-0.4-0.5-0.4-1-0.3-1.5c0.1-0.5,0.5-0.9,0.9-1.3
								c0.2-0.2,0.5-0.3,0.7-0.5c0.3-0.1,0.5-0.2,0.8-0.3c0.1,0,0.2,0,0.2,0c0.1,0,0.1,0.1,0.2,0.1c0.1,0.1,0.1,0.2,0.1,0.3
								c0,0.1-0.1,0.2-0.1,0.2c0,0-0.1,0-0.1,0.1c0,0-0.1,0-0.1,0c-0.1,0-0.3,0.1-0.6,0.2s-0.4,0.2-0.6,0.4
								c-0.3,0.2-0.5,0.4-0.6,0.7c-0.1,0.3-0.1,0.5,0.1,0.8c0.2,0.2,0.4,0.2,0.8,0.2c0.4-0.1,0.8-0.2,1.2-0.3
								c0.5-0.1,0.9-0.3,1.4-0.3c0.4,0,0.8,0.1,1.1,0.5c0.4,0.5,0.5,1.1,0.3,1.6c-0.2,0.5-0.5,0.9-1,1.3c-0.3,0.2-0.6,0.4-1,0.5
								c-0.3,0.1-0.7,0.2-1,0.2c-0.1,0-0.1,0-0.2,0s-0.1-0.1-0.1-0.1c-0.1-0.1-0.1-0.2-0.1-0.3c0-0.1,0.1-0.2,0.1-0.2
								c0,0,0.1-0.1,0.1-0.1c0.1,0,0.1,0,0.2,0c0.2,0,0.5-0.1,0.7-0.1C163.9,175.6,164.2,175.4,164.4,175.3z"/>
						</g>
					</g>
				</g>
			</g>
			<g>
				<g>
					<path class="st0" d="M132.2,163.6h9.8h9.8v-19.7v-19.7l1.2,1.6l1.2,1.6l4.9-3.3l4.9-3.3l-5.8-8.3l-5.8-8.3h-6h-6
						c-0.5,1.7-1.6,3.2-3,4.3c-1.4,1.1-3.2,1.7-5.1,1.7c-1.9,0-3.7-0.6-5.1-1.7s-2.5-2.6-3-4.3h-6h-6l-5.8,8.3l-5.8,8.3l4.9,3.3
						l4.9,3.3l1.2-1.6l1.2-1.6v19.7v19.7h9.8H132.2z"/>
					<path class="st0" d="M121.2,104.1c0.5,2.6,1.9,4.8,3.8,6.4c1.9,1.6,4.4,2.6,7.1,2.6c2.7,0,5.2-1,7.1-2.5s3.3-3.8,3.9-6.3"/>
				</g>
				<g>
					<path class="st0" d="M132.3,139.1c0,0,1.1-0.8,2.2-2.4c1.1-1.6,2.2-3.9,2.2-6.7c0-2.9-1.1-5-2.2-6.3c-1.1-1.4-2.2-2-2.2-2
						s-1.1,0.7-2.2,2c-1.1,1.4-2.2,3.5-2.2,6.3c0,2.9,1.1,5.2,2.2,6.7C131.1,138.3,132.3,139.1,132.3,139.1z"/>
					<path class="st0" d="M132.3,140.9c0,0,1,0.6,2.5,1c1.5,0.4,3.6,0.5,5.8-0.4c2.2-0.9,3.4-2.4,4.1-3.7c0.7-1.3,0.9-2.3,0.9-2.3
						s-0.8-0.7-2.2-1.1c-1.4-0.4-3.3-0.6-5.5,0.2c-2.2,0.9-3.6,2.4-4.4,3.8C132.6,139.8,132.3,140.9,132.3,140.9z"/>
					<path class="st0" d="M132.2,140.9c0,0-1,0.6-2.5,1c-1.5,0.4-3.6,0.5-5.8-0.4c-2.2-0.9-3.4-2.4-4.1-3.7
						c-0.7-1.3-0.9-2.3-0.9-2.3s0.8-0.7,2.2-1.1c1.4-0.4,3.3-0.6,5.5,0.2c2.2,0.9,3.6,2.4,4.4,3.8
						C131.9,139.8,132.2,140.9,132.2,140.9z"/>
					<polyline class="st0" points="132.2,130.3 132.2,139.5 132.2,148.6 					"/>
					<polyline class="st0" points="132.3,140.9 135.5,139.6 138.8,138.2 					"/>
					<polyline class="st0" points="132.1,140.9 128.8,139.6 125.6,138.2 					"/>
				</g>
			</g>
		</g>
	</g>
</g>
</svg>
