<?xml version="1.0" encoding="utf-8"?>
<!-- Generator: Adobe Illustrator 26.4.1, SVG Export Plug-In . SVG Version: 6.00 Build 0)  -->
<svg version="1.1" id="Capa_1" xmlns="http://www.w3.org/2000/svg" xmlns:xlink="http://www.w3.org/1999/xlink" x="0px" y="0px"
	 viewBox="0 0 268 58" style="enable-background:new 0 0 268 58;" xml:space="preserve">
<style type="text/css">
	.st0{fill:#6E4C3D;}
	.st1{fill:#FFFFFF;}
</style>
<g>
	<g>
		<path class="st0" d="M33,30.3c-0.19,0.75-0.78,0.93-1.42,0.96c-0.99,0.04-1.99,0.02-2.98,0.03c-0.49,0-0.98,0-1.49,0
			c0.06,0.04,0.11,0.09,0.17,0.13c1.1,0.79,2.21,1.57,3.3,2.36c0.18,0.13,0.34,0.3,0.48,0.47c0.39,0.46,0.42,1.04,0.11,1.45
			c-0.34,0.44-0.93,0.59-1.46,0.3c-0.59-0.33-1.16-0.71-1.72-1.11c-0.73-0.52-1.44-1.09-2.16-1.63c-0.04-0.03-0.08-0.06-0.16-0.12
			c0.04,0.1,0.06,0.16,0.08,0.22c0.43,1.29,0.87,2.59,1.29,3.89c0.13,0.4,0.21,0.82,0.04,1.24c-0.15,0.4-0.46,0.65-0.87,0.71
			c-0.44,0.07-0.84-0.06-1.08-0.47c-0.18-0.31-0.35-0.63-0.46-0.97c-0.4-1.23-0.77-2.46-1.15-3.7c-0.02-0.06-0.04-0.12-0.07-0.23
			c-0.04,0.1-0.06,0.16-0.08,0.22c-0.37,1.21-0.74,2.42-1.13,3.63c-0.12,0.36-0.28,0.7-0.48,1.03c-0.27,0.45-0.79,0.62-1.25,0.46
			c-0.51-0.18-0.83-0.65-0.79-1.18c0.05-0.72,0.3-1.39,0.53-2.07c0.29-0.86,0.6-1.72,0.9-2.58c0.02-0.05,0.03-0.1,0.06-0.19
			c-0.08,0.06-0.13,0.09-0.18,0.13c-1.05,0.78-2.1,1.57-3.16,2.34c-0.32,0.24-0.67,0.45-1.09,0.51c-0.49,0.06-0.91-0.14-1.13-0.54
			c-0.22-0.39-0.2-0.91,0.12-1.25c0.3-0.32,0.62-0.63,0.98-0.89c0.95-0.69,1.92-1.36,2.88-2.03c0.05-0.04,0.1-0.07,0.15-0.15
			c-0.06,0-0.12,0-0.18,0c-1.22,0.02-2.44,0.04-3.65,0.04c-0.43,0-0.86-0.03-1.27-0.18c-0.51-0.19-0.79-0.58-0.77-1.1
			c0.02-0.52,0.3-0.9,0.85-1.02c0.46-0.1,0.95-0.15,1.42-0.15c1.14-0.01,2.27,0.03,3.41,0.04c0.07,0,0.13,0,0.25,0
			c-0.1-0.07-0.15-0.12-0.21-0.16c-1.1-0.79-2.21-1.57-3.3-2.37c-0.33-0.24-0.63-0.53-0.75-0.95c-0.12-0.43-0.02-0.8,0.3-1.11
			c0.3-0.29,0.68-0.38,1.07-0.25c0.33,0.11,0.66,0.27,0.94,0.47c1.06,0.77,2.11,1.56,3.16,2.34c0.05,0.04,0.1,0.07,0.19,0.13
			c-0.16-0.45-0.31-0.86-0.44-1.27c-0.31-0.94-0.63-1.88-0.92-2.83c-0.13-0.41-0.21-0.83-0.04-1.26c0.15-0.39,0.45-0.64,0.85-0.7
			c0.43-0.07,0.83,0.05,1.07,0.44c0.19,0.32,0.37,0.65,0.48,1c0.4,1.23,0.77,2.46,1.15,3.7c0.02,0.06,0.04,0.11,0.07,0.22
			c0.04-0.1,0.06-0.16,0.08-0.22c0.37-1.21,0.74-2.42,1.13-3.63c0.12-0.36,0.29-0.71,0.49-1.04c0.24-0.39,0.72-0.57,1.13-0.47
			c0.48,0.12,0.84,0.48,0.86,0.95c0.02,0.33,0,0.68-0.1,0.99c-0.41,1.3-0.85,2.59-1.29,3.89c-0.02,0.06-0.04,0.12-0.08,0.23
			c0.09-0.07,0.14-0.1,0.19-0.14c1.05-0.78,2.09-1.56,3.14-2.33c0.33-0.24,0.68-0.46,1.1-0.51c0.49-0.06,0.9,0.15,1.13,0.55
			c0.22,0.38,0.19,0.91-0.13,1.25c-0.3,0.32-0.62,0.63-0.98,0.89c-0.95,0.69-1.92,1.36-2.88,2.03c-0.05,0.03-0.1,0.07-0.2,0.14
			c0.12,0,0.18,0,0.24,0c1.25-0.02,2.5-0.04,3.75-0.04c0.33,0,0.67,0.06,1,0.12c0.49,0.09,0.83,0.38,0.95,0.88
			C33,30.01,33,30.16,33,30.3z"/>
	</g>
</g>
<g>
	<g>
		<g>
			<g>
				<path class="st0" d="M76.68,44.77c0.42,0.45,0.9,0.69,1.44,0.72l-0.18,0.9c-1.53-0.09-3.71-0.14-6.53-0.14
					c-3.06,0-5.31,0.05-6.75,0.14l0.18-0.9c1.02-0.06,1.82-0.19,2.39-0.38c0.57-0.19,0.98-0.56,1.22-1.08
					c0.24-0.52,0.33-1.3,0.27-2.32l-0.41-7.38h-9.73l-3.96,5.63c-0.96,1.35-1.44,2.46-1.44,3.33c0,0.72,0.32,1.25,0.97,1.6
					c0.65,0.35,1.58,0.55,2.81,0.61l-0.23,0.9c-2.52-0.09-4.47-0.14-5.85-0.14c-1.11,0-2.15,0.05-3.11,0.14l0.18-0.9
					c0.78-0.21,1.54-0.66,2.27-1.35c0.74-0.69,1.67-1.83,2.81-3.42l18.78-26.43c0.27,0.03,0.66,0.05,1.17,0.05
					c0.54,0,0.92-0.02,1.13-0.05l1.8,28.32C76,43.6,76.26,44.32,76.68,44.77z M68.26,33.43l-0.59-11.93l-8.46,11.93H68.26z"/>
				<path class="st0" d="M87.53,43.69c0,0.75,0.32,1.13,0.95,1.13c0.93,0,1.83-1.19,2.7-3.56l0.81-2.16h0.86l-1.13,3.29
					c-0.57,1.68-1.4,2.87-2.48,3.58s-2.25,1.06-3.51,1.06c-1.35,0-2.37-0.35-3.06-1.06c-0.69-0.71-1.04-1.69-1.04-2.95
					c0-0.93,0.18-1.98,0.54-3.15l7.07-23.5c0.15-0.54,0.23-0.96,0.23-1.26c0-0.6-0.23-1.04-0.7-1.31c-0.47-0.27-1.25-0.41-2.36-0.41
					l0.31-0.95c2.07-0.03,3.93-0.19,5.58-0.5c1.65-0.3,3.27-0.75,4.86-1.35l-9.46,31.97C87.59,42.96,87.53,43.33,87.53,43.69z"/>
				<path class="st0" d="M131.34,39.1l-1.13,3.29c-1.08,3.09-3.11,4.64-6.08,4.64c-1.74,0-2.94-0.54-3.6-1.62
					c-0.33-0.51-0.5-1.19-0.5-2.03c0-0.99,0.23-2.16,0.68-3.51l4.05-12.16c0.24-0.78,0.36-1.38,0.36-1.8c0-0.6-0.21-0.9-0.63-0.9
					c-1.23,0-2.71,1.48-4.44,4.44s-3.46,7.26-5.2,12.9v-0.14l-1.17,4.19h-6.44l5.49-18.69c0.24-0.78,0.36-1.4,0.36-1.85
					c0-0.57-0.24-0.86-0.72-0.86c-1.35,0-2.87,1.56-4.57,4.68c-1.7,3.12-3.29,7.19-4.8,12.2v-0.04l-1.17,4.55H95.5l5.49-19.45
					c0.15-0.51,0.23-0.95,0.23-1.31c0-0.63-0.27-0.95-0.81-0.95c-0.54,0-1.03,0.28-1.46,0.83c-0.44,0.56-0.89,1.46-1.37,2.72
					l-0.86,2.3h-0.86l1.22-3.42c0.6-1.65,1.43-2.84,2.5-3.56c1.07-0.72,2.26-1.08,3.58-1.08c1.29,0,2.22,0.33,2.79,0.99
					c0.57,0.66,0.86,1.53,0.86,2.61c0,0.78-0.13,1.68-0.41,2.7l-0.99,3.87c1.47-3.66,2.98-6.27,4.52-7.83
					c1.55-1.56,3.4-2.34,5.56-2.34c2.37,0,3.56,1.17,3.56,3.51c0,0.84-0.18,1.94-0.54,3.29l-0.81,2.88c1.5-3.57,3.02-6.08,4.57-7.52
					c1.55-1.44,3.32-2.16,5.34-2.16c1.26,0,2.19,0.31,2.79,0.95c0.6,0.63,0.9,1.49,0.9,2.57c0,0.99-0.21,2.09-0.63,3.29l-4.41,13.28
					c-0.18,0.57-0.27,1.01-0.27,1.31c0,0.63,0.29,0.95,0.86,0.95c1.02,0,1.97-1.19,2.84-3.56l0.81-2.16H131.34z"/>
				<path class="st0" d="M155.65,39.1h0.86l-1.13,3.29c-0.6,1.68-1.43,2.87-2.5,3.58c-1.07,0.71-2.21,1.06-3.44,1.06
					c-1.56,0-2.67-0.47-3.33-1.4c-0.42-0.54-0.63-1.29-0.63-2.25c0-0.78,0.13-1.67,0.41-2.66c-1.02,2.22-2.15,3.83-3.4,4.82
					c-1.25,0.99-2.62,1.49-4.12,1.49c-1.65,0-2.9-0.49-3.76-1.46s-1.28-2.33-1.28-4.07c0-2.67,0.71-5.5,2.14-8.49
					c1.43-2.99,3.23-5.49,5.43-7.5c2.19-2.01,4.34-3.02,6.44-3.02c0.81,0,1.46,0.24,1.96,0.72c0.5,0.48,0.79,1.2,0.88,2.16
					l0.63-2.21c2.4-0.03,4.58-0.25,6.53-0.68l-5.9,20.08c-0.15,0.51-0.23,0.93-0.23,1.26c0,0.66,0.28,0.99,0.86,0.99
					c1.05,0,1.98-1.19,2.79-3.56L155.65,39.1z M149.66,27.12c0.03-0.15,0.05-0.38,0.05-0.68c0-0.75-0.13-1.32-0.38-1.71
					c-0.26-0.39-0.64-0.58-1.15-0.58c-1.02,0-2.18,0.92-3.49,2.75c-1.31,1.83-2.42,4.13-3.33,6.89c-0.92,2.76-1.37,5.43-1.37,8.01
					c0,0.99,0.1,1.7,0.29,2.14c0.2,0.44,0.52,0.65,0.97,0.65c0.66,0,1.39-0.46,2.18-1.37c0.79-0.92,1.59-2.24,2.39-3.96
					c0.79-1.73,1.49-3.77,2.09-6.15l-0.23,1.08L149.66,27.12z"/>
				<path class="st0" d="M168.53,41.62c-0.21,0.72-0.31,1.38-0.31,1.98c0,0.63,0.22,1.1,0.65,1.4c0.43,0.3,1.21,0.47,2.32,0.5
					l-0.18,0.9c-1.8-0.09-4.11-0.14-6.93-0.14c-3.39,0-5.88,0.05-7.47,0.14l0.18-0.9c1.08-0.06,1.89-0.18,2.43-0.36
					c0.54-0.18,0.97-0.52,1.28-1.04c0.32-0.51,0.62-1.33,0.92-2.48l5.94-22.33c0.21-0.99,0.31-1.7,0.31-2.12
					c0-0.6-0.22-1.04-0.65-1.31c-0.44-0.27-1.21-0.42-2.32-0.45l0.23-0.9c1.53,0.09,3.92,0.13,7.16,0.13c1.44,0,2.52-0.01,3.24-0.04
					l3.33-0.04c7.05,0,10.58,2.27,10.58,6.8c0,2.34-0.78,4.44-2.34,6.3c-1.56,1.86-3.75,3.32-6.57,4.37
					c-2.82,1.05-6.05,1.58-9.68,1.58L168.53,41.62z M170.92,32.71h0.18c2.49,0,4.53-0.6,6.12-1.8c1.59-1.2,2.74-2.74,3.44-4.61
					c0.71-1.88,1.06-3.86,1.06-5.97c0-1.65-0.35-2.88-1.04-3.69c-0.69-0.81-1.8-1.22-3.33-1.22c-0.63,0-1.1,0.11-1.4,0.31
					c-0.3,0.21-0.55,0.56-0.74,1.04c-0.2,0.48-0.44,1.32-0.74,2.52L170.92,32.71z"/>
				<path class="st0" d="M211.57,38.96h0.86l-1.22,3.42c-0.57,1.65-1.39,2.84-2.45,3.56c-1.07,0.72-2.26,1.08-3.58,1.08
					c-0.81,0-1.5-0.14-2.07-0.41s-0.99-0.65-1.26-1.13c-0.27-0.54-0.41-1.16-0.41-1.85c0-0.69,0.15-1.67,0.45-2.93l1.22-4.64
					c-1.17,2.82-2.3,5.03-3.38,6.62c-1.08,1.59-2.18,2.71-3.29,3.35c-1.11,0.65-2.36,0.97-3.74,0.97c-1.35,0-2.36-0.32-3.04-0.95
					c-0.68-0.63-1.01-1.55-1.01-2.75c0-0.93,0.19-1.97,0.58-3.11l4.37-13.28c0.18-0.54,0.27-0.98,0.27-1.31
					c0-0.63-0.29-0.95-0.86-0.95c-0.48,0-0.95,0.26-1.42,0.77c-0.47,0.51-0.94,1.44-1.42,2.79l-0.81,2.16h-0.86l1.13-3.29
					c1.08-3.09,3.09-4.64,6.03-4.64c2.73,0,4.1,1.25,4.1,3.74c0,0.93-0.21,2.07-0.63,3.42l-4.05,12.16
					c-0.27,0.81-0.41,1.46-0.41,1.94c0,0.69,0.29,1.04,0.86,1.04c0.9,0,1.97-0.88,3.2-2.66c1.23-1.77,2.47-4.12,3.71-7.05
					s2.35-6.07,3.31-9.43l0.68-2.52c2.67-0.06,4.85-0.27,6.53-0.63l-5.63,20.08c-0.18,0.63-0.27,1.13-0.27,1.49
					c0,0.51,0.25,0.77,0.77,0.77c0.57,0,1.08-0.27,1.53-0.81c0.45-0.54,0.9-1.46,1.35-2.75L211.57,38.96z"/>
				<path class="st0" d="M235.77,23.5c0.65,0.68,0.97,1.55,0.97,2.63c0,1.29-0.41,2.39-1.24,3.31c-0.83,0.92-1.84,1.37-3.04,1.37
					c-0.87,0-1.55-0.23-2.03-0.7c-0.48-0.47-0.72-1.13-0.72-2c0-1.05,0.36-2,1.08-2.86c0.72-0.86,1.61-1.4,2.66-1.64
					c-0.06,0-0.15-0.02-0.27-0.07c-0.12-0.04-0.23-0.07-0.31-0.07c-1.53,0-3.09,1.11-4.68,3.33c-1.59,2.22-3.21,6.18-4.86,11.89
					l-1.98,7.7h-6.35l5.49-19.45c0.15-0.48,0.23-0.95,0.23-1.4c0-0.57-0.24-0.86-0.72-0.86c-0.57,0-1.08,0.27-1.53,0.81
					c-0.45,0.54-0.92,1.46-1.4,2.75l-0.86,2.3h-0.86l1.22-3.42c1.11-3.09,3.18-4.64,6.21-4.64c2.31,0,3.47,1.22,3.47,3.65
					c0,0.87-0.12,1.76-0.36,2.66l-0.36,1.44c1.11-2.85,2.24-4.85,3.4-6.01c1.15-1.16,2.54-1.73,4.16-1.73
					C234.24,22.49,235.13,22.82,235.77,23.5z"/>
				<path class="st0" d="M257.14,39.1h0.86l-1.13,3.29c-0.6,1.68-1.43,2.87-2.5,3.58c-1.07,0.71-2.21,1.06-3.44,1.06
					c-1.56,0-2.67-0.47-3.33-1.4c-0.42-0.54-0.63-1.29-0.63-2.25c0-0.78,0.13-1.67,0.41-2.66c-1.02,2.22-2.15,3.83-3.4,4.82
					c-1.25,0.99-2.62,1.49-4.12,1.49c-1.65,0-2.9-0.49-3.76-1.46s-1.28-2.33-1.28-4.07c0-2.67,0.71-5.5,2.14-8.49
					c1.43-2.99,3.23-5.49,5.43-7.5c2.19-2.01,4.34-3.02,6.44-3.02c0.81,0,1.46,0.24,1.96,0.72c0.5,0.48,0.79,1.2,0.88,2.16
					l0.63-2.21c2.4-0.03,4.58-0.25,6.53-0.68l-5.9,20.08c-0.15,0.51-0.23,0.93-0.23,1.26c0,0.66,0.28,0.99,0.86,0.99
					c1.05,0,1.98-1.19,2.79-3.56L257.14,39.1z M251.15,27.12c0.03-0.15,0.05-0.38,0.05-0.68c0-0.75-0.13-1.32-0.38-1.71
					c-0.26-0.39-0.64-0.58-1.15-0.58c-1.02,0-2.18,0.92-3.49,2.75c-1.31,1.83-2.42,4.13-3.33,6.89c-0.92,2.76-1.37,5.43-1.37,8.01
					c0,0.99,0.1,1.7,0.29,2.14c0.2,0.44,0.52,0.65,0.97,0.65c0.66,0,1.39-0.46,2.18-1.37c0.79-0.92,1.59-2.24,2.39-3.96
					c0.79-1.73,1.49-3.77,2.09-6.15l-0.23,1.08L251.15,27.12z"/>
			</g>
		</g>
	</g>
	<g>
		<path class="st0" d="M28.17,46.83c-0.66,0-1.32,0-1.98,0c-0.07-0.02-0.14-0.04-0.21-0.05c-0.72-0.11-1.45-0.18-2.16-0.32
			c-6.13-1.23-11.21-6.5-12.21-12.66c-0.1-0.6-0.17-1.2-0.25-1.8c0-0.66,0-1.32,0-1.98c0.1-0.7,0.18-1.41,0.31-2.1
			c1.18-6.3,6.44-11.45,12.76-12.49c0.59-0.1,1.18-0.16,1.77-0.24c0.66,0,1.32,0,1.98,0c0.08,0.02,0.16,0.04,0.24,0.05
			c0.81,0.13,1.64,0.2,2.43,0.38c6.09,1.39,10.89,6.49,11.92,12.66c0.1,0.58,0.16,1.16,0.24,1.74c0,0.66,0,1.32,0,1.98
			c-0.02,0.08-0.04,0.16-0.05,0.24c-0.11,0.73-0.18,1.47-0.33,2.2c-1.27,6.13-6.51,11.15-12.69,12.15
			C29.35,46.68,28.76,46.75,28.17,46.83z M29.47,32.01c0.01-0.03,0.02-0.05,0.03-0.08c1.71,0,3.42,0,5.14,0c0-0.63,0-1.22,0-1.85
			c-1.73,0-3.44,0-5.24,0c1.28-1.28,2.49-2.49,3.67-3.66c-0.44-0.44-0.87-0.87-1.34-1.34c-1.19,1.19-2.4,2.4-3.63,3.63
			c0-1.73,0-3.45,0-5.16c-0.63,0-1.22,0-1.85,0c0,1.73,0,3.44,0,5.25c-1.27-1.28-2.48-2.5-3.66-3.68c-0.45,0.45-0.87,0.87-1.35,1.35
			c1.19,1.19,2.4,2.4,3.63,3.63c-1.73,0-3.45,0-5.16,0c0,0.63,0,1.22,0,1.85c1.73,0,3.44,0,5.23,0c-1.27,1.27-2.48,2.48-3.66,3.66
			c0.44,0.44,0.87,0.87,1.34,1.35c1.19-1.19,2.39-2.4,3.64-3.64c0,1.74,0,3.46,0,5.17c0.63,0,1.22,0,1.85,0c0-1.73,0-3.44,0-5.25
			c1.27,1.29,2.48,2.5,3.65,3.69c0.45-0.45,0.88-0.88,1.31-1.31C31.89,34.42,30.68,33.22,29.47,32.01z"/>
		<path class="st1" d="M29.47,32.01c1.21,1.21,2.42,2.41,3.61,3.6c-0.43,0.43-0.86,0.86-1.31,1.31c-1.17-1.19-2.38-2.4-3.65-3.69
			c0,1.81,0,3.52,0,5.25c-0.63,0-1.22,0-1.85,0c0-1.71,0-3.43,0-5.17c-1.24,1.24-2.45,2.46-3.64,3.64c-0.47-0.48-0.9-0.9-1.34-1.35
			c1.18-1.18,2.39-2.39,3.66-3.66c-1.79,0-3.5,0-5.23,0c0-0.63,0-1.22,0-1.85c1.71,0,3.43,0,5.16,0c-1.24-1.24-2.45-2.45-3.63-3.63
			c0.48-0.48,0.9-0.9,1.35-1.35c1.17,1.18,2.38,2.4,3.66,3.68c0-1.81,0-3.52,0-5.25c0.63,0,1.22,0,1.85,0c0,1.71,0,3.43,0,5.16
			c1.24-1.24,2.45-2.45,3.63-3.63c0.47,0.48,0.9,0.9,1.34,1.34c-1.18,1.18-2.39,2.39-3.67,3.66c1.81,0,3.52,0,5.24,0
			c0,0.63,0,1.22,0,1.85c-1.71,0-3.43,0-5.14,0C29.5,31.96,29.48,31.98,29.47,32.01z"/>
	</g>
</g>
</svg>
