<?xml version="1.0" encoding="utf-8"?>
<!-- Generator: Adobe Illustrator 26.4.1, SVG Export Plug-In . SVG Version: 6.00 Build 0)  -->
<svg version="1.1" id="Capa_1" xmlns="http://www.w3.org/2000/svg" xmlns:xlink="http://www.w3.org/1999/xlink" x="0px" y="0px"
	 viewBox="0 0 320 82" style="enable-background:new 0 0 320 82;" xml:space="preserve">
<style type="text/css">
	.st0{fill:#FFFFFF;}
</style>
<g>
	<g>
		<g>
			<g>
				<g>
					<g>
						<path class="st0" d="M55.7,61c0.6,0.6,1.2,0.9,2,1l-0.2,1.2c-2.1-0.1-5-0.2-8.9-0.2c-4.2,0-7.2,0.1-9.2,0.2l0.2-1.2
							c1.4-0.1,2.5-0.3,3.2-0.5c0.8-0.3,1.3-0.8,1.7-1.5c0.3-0.7,0.4-1.8,0.4-3.2l-0.6-10H31.1l-5.4,7.7c-1.3,1.8-2,3.3-2,4.5
							c0,1,0.4,1.7,1.3,2.2s2.2,0.7,3.8,0.8l-0.3,1.2c-3.4-0.1-6.1-0.2-8-0.2c-1.5,0-2.9,0.1-4.2,0.2l0.2-1.2
							c1.1-0.3,2.1-0.9,3.1-1.8c1-0.9,2.3-2.5,3.8-4.7l25.5-35.9c0.4,0,0.9,0.1,1.6,0.1c0.7,0,1.2,0,1.5-0.1l2.4,38.5
							C54.8,59.4,55.1,60.4,55.7,61z M44.2,45.6l-0.8-16.2L31.9,45.6H44.2z"/>
						<path class="st0" d="M70.4,59.5c0,1,0.4,1.5,1.3,1.5c1.3,0,2.5-1.6,3.7-4.8l1.1-2.9h1.2l-1.5,4.5c-0.8,2.3-1.9,3.9-3.4,4.9
							s-3.1,1.4-4.8,1.4c-1.8,0-3.2-0.5-4.2-1.4c-0.9-1-1.4-2.3-1.4-4c0-1.3,0.2-2.7,0.7-4.3l9.6-32c0.2-0.7,0.3-1.3,0.3-1.7
							c0-0.8-0.3-1.4-0.9-1.8s-1.7-0.6-3.2-0.6l0.4-1.3c2.8,0,5.3-0.3,7.6-0.7c2.2-0.4,4.4-1,6.6-1.8L70.7,58
							C70.5,58.5,70.4,59,70.4,59.5z"/>
						<path class="st0" d="M130,53.3l-1.5,4.5c-1.5,4.2-4.2,6.3-8.3,6.3c-2.4,0-4-0.7-4.9-2.2c-0.4-0.7-0.7-1.6-0.7-2.8
							c0-1.3,0.3-2.9,0.9-4.8l5.5-16.5c0.3-1.1,0.5-1.9,0.5-2.4c0-0.8-0.3-1.2-0.9-1.2c-1.7,0-3.7,2-6,6s-4.7,9.9-7.1,17.5v-0.2
							l-1.6,5.7h-8.8l7.5-25.4c0.3-1.1,0.5-1.9,0.5-2.5c0-0.8-0.3-1.2-1-1.2c-1.8,0-3.9,2.1-6.2,6.4c-2.3,4.2-4.5,9.8-6.5,16.6V57
							l-1.6,6.2h-8.6l7.5-26.5c0.2-0.7,0.3-1.3,0.3-1.8c0-0.9-0.4-1.3-1.1-1.3s-1.4,0.4-2,1.1c-0.6,0.8-1.2,2-1.9,3.7l-1.2,3.1h-1.2
							l1.7-4.7c0.8-2.2,1.9-3.9,3.4-4.8c1.4-1,3.1-1.5,4.9-1.5s3,0.4,3.8,1.3c0.8,0.9,1.2,2.1,1.2,3.6c0,1.1-0.2,2.3-0.6,3.7
							l-1.3,5.3c2-5,4.1-8.5,6.2-10.7c2.1-2.1,4.6-3.2,7.6-3.2c3.2,0,4.8,1.6,4.8,4.8c0,1.1-0.2,2.6-0.7,4.5l-1.1,3.9
							c2-4.9,4.1-8.3,6.2-10.2c2.1-2,4.5-2.9,7.3-2.9c1.7,0,3,0.4,3.8,1.3s1.2,2,1.2,3.5c0,1.3-0.3,2.8-0.9,4.5l-6,18.1
							c-0.2,0.8-0.4,1.4-0.4,1.8c0,0.9,0.4,1.3,1.2,1.3c1.4,0,2.7-1.6,3.9-4.8l1.1-2.9L130,53.3L130,53.3z"/>
						<path class="st0" d="M163.1,53.3h1.2l-1.5,4.5c-0.8,2.3-2,3.9-3.4,4.9s-3,1.4-4.7,1.4c-2.1,0-3.6-0.6-4.5-1.9
							c-0.6-0.7-0.9-1.8-0.9-3.1c0-1.1,0.2-2.3,0.6-3.6c-1.4,3-2.9,5.2-4.6,6.6c-1.7,1.3-3.6,2-5.6,2c-2.2,0-4-0.7-5.1-2
							c-1.2-1.3-1.7-3.2-1.7-5.5c0-3.6,1-7.5,2.9-11.5c1.9-4.1,4.4-7.5,7.4-10.2s5.9-4.1,8.8-4.1c1.1,0,2,0.3,2.7,1
							c0.7,0.7,1.1,1.6,1.2,2.9l0.9-3c3.3,0,6.2-0.3,8.9-0.9l-8,27.3c-0.2,0.7-0.3,1.3-0.3,1.7c0,0.9,0.4,1.3,1.2,1.3
							c1.4,0,2.7-1.6,3.8-4.8L163.1,53.3z M155,37c0-0.2,0.1-0.5,0.1-0.9c0-1-0.2-1.8-0.5-2.3S153.7,33,153,33c-1.4,0-3,1.2-4.7,3.7
							c-1.8,2.5-3.3,5.6-4.5,9.4s-1.9,7.4-1.9,10.9c0,1.3,0.1,2.3,0.4,2.9c0.3,0.6,0.7,0.9,1.3,0.9c0.9,0,1.9-0.6,3-1.9
							c1.1-1.2,2.2-3,3.2-5.4c1.1-2.3,2-5.1,2.8-8.4l-0.3,1.5L155,37z"/>
						<path class="st0" d="M180.6,56.7c-0.3,1-0.4,1.9-0.4,2.7c0,0.9,0.3,1.5,0.9,1.9c0.6,0.4,1.6,0.6,3.2,0.7l-0.2,1.2
							c-2.4-0.1-5.6-0.2-9.4-0.2c-4.6,0-8,0.1-10.2,0.2l0.2-1.2c1.5-0.1,2.6-0.2,3.3-0.5s1.3-0.7,1.7-1.4s0.8-1.8,1.3-3.4l8.1-30.4
							c0.3-1.3,0.4-2.3,0.4-2.9c0-0.8-0.3-1.4-0.9-1.8c-0.6-0.4-1.6-0.6-3.2-0.6l0.3-1.2c2.1,0.1,5.3,0.2,9.7,0.2c2,0,3.4,0,4.4-0.1
							l4.5-0.1c9.6,0,14.4,3.1,14.4,9.2c0,3.2-1.1,6-3.2,8.6c-2.1,2.5-5.1,4.5-8.9,5.9c-3.8,1.4-8.2,2.1-13.2,2.1L180.6,56.7z
							 M183.9,44.6h0.2c3.4,0,6.2-0.8,8.3-2.4c2.2-1.6,3.7-3.7,4.7-6.3s1.4-5.3,1.4-8.1c0-2.2-0.5-3.9-1.4-5s-2.4-1.7-4.5-1.7
							c-0.9,0-1.5,0.1-1.9,0.4s-0.7,0.8-1,1.4c-0.3,0.7-0.6,1.8-1,3.4L183.9,44.6z"/>
						<path class="st0" d="M239.2,53.1h1.2l-1.7,4.7c-0.8,2.2-1.9,3.9-3.3,4.8c-1.4,1-3.1,1.5-4.9,1.5c-1.1,0-2-0.2-2.8-0.6
							c-0.8-0.4-1.3-0.9-1.7-1.5c-0.4-0.7-0.6-1.6-0.6-2.5s0.2-2.3,0.6-4l1.7-6.3c-1.6,3.8-3.1,6.8-4.6,9s-3,3.7-4.5,4.6
							c-1.5,0.9-3.2,1.3-5.1,1.3c-1.8,0-3.2-0.4-4.1-1.3c-0.9-0.9-1.4-2.1-1.4-3.7c0-1.3,0.3-2.7,0.8-4.2l5.9-18.1
							c0.2-0.7,0.4-1.3,0.4-1.8c0-0.9-0.4-1.3-1.2-1.3c-0.7,0-1.3,0.3-1.9,1c-0.6,0.7-1.3,2-1.9,3.8l-1.1,2.9h-1.2l1.5-4.5
							c1.5-4.2,4.2-6.3,8.2-6.3c3.7,0,5.6,1.7,5.6,5.1c0,1.3-0.3,2.8-0.9,4.7L216.8,57c-0.4,1.1-0.6,2-0.6,2.6
							c0,0.9,0.4,1.4,1.2,1.4c1.2,0,2.7-1.2,4.3-3.6c1.7-2.4,3.4-5.6,5.1-9.6c1.7-4,3.2-8.3,4.5-12.8l0.9-3.4
							c3.6-0.1,6.6-0.4,8.9-0.9L233.4,58c-0.2,0.9-0.4,1.5-0.4,2c0,0.7,0.3,1,1,1c0.8,0,1.5-0.4,2.1-1.1s1.2-2,1.8-3.7L239.2,53.1z"
							/>
						<path class="st0" d="M272.1,32.1c0.9,0.9,1.3,2.1,1.3,3.6c0,1.8-0.6,3.3-1.7,4.5s-2.5,1.9-4.1,1.9c-1.2,0-2.1-0.3-2.8-0.9
							c-0.7-0.6-1-1.5-1-2.7c0-1.4,0.5-2.7,1.5-3.9s2.2-1.9,3.6-2.2c-0.1,0-0.2,0-0.4-0.1c-0.2-0.1-0.3-0.1-0.4-0.1
							c-2.1,0-4.2,1.5-6.4,4.5c-2.2,3-4.4,8.4-6.6,16.2l-2.7,10.5h-8.6l7.5-26.5c0.2-0.7,0.3-1.3,0.3-1.9c0-0.8-0.3-1.2-1-1.2
							c-0.8,0-1.5,0.4-2.1,1.1s-1.2,2-1.9,3.7l-1.2,3.1h-1.2L246,37c1.5-4.2,4.3-6.3,8.5-6.3c3.1,0,4.7,1.7,4.7,5
							c0,1.2-0.2,2.4-0.5,3.6l-0.5,2c1.5-3.9,3.1-6.6,4.6-8.2c1.6-1.6,3.5-2.4,5.7-2.4C270,30.7,271.2,31.1,272.1,32.1z"/>
						<path class="st0" d="M301.1,53.3h1.2l-1.5,4.5c-0.8,2.3-2,3.9-3.4,4.9s-3,1.4-4.7,1.4c-2.1,0-3.6-0.6-4.5-1.9
							c-0.6-0.7-0.9-1.8-0.9-3.1c0-1.1,0.2-2.3,0.6-3.6c-1.4,3-2.9,5.2-4.6,6.6c-1.7,1.3-3.6,2-5.6,2c-2.2,0-4-0.7-5.1-2
							c-1.2-1.3-1.7-3.2-1.7-5.5c0-3.6,1-7.5,2.9-11.5c1.9-4.1,4.4-7.5,7.4-10.2s5.9-4.1,8.8-4.1c1.1,0,2,0.3,2.7,1
							c0.7,0.7,1.1,1.6,1.2,2.9l0.9-3c3.3,0,6.2-0.3,8.9-0.9l-8,27.3c-0.2,0.7-0.3,1.3-0.3,1.7c0,0.9,0.4,1.3,1.2,1.3
							c1.4,0,2.7-1.6,3.8-4.8L301.1,53.3z M293,37c0-0.2,0.1-0.5,0.1-0.9c0-1-0.2-1.8-0.5-2.3S291.7,33,291,33c-1.4,0-3,1.2-4.7,3.7
							c-1.8,2.5-3.3,5.6-4.5,9.4s-1.9,7.4-1.9,10.9c0,1.3,0.1,2.3,0.4,2.9c0.3,0.6,0.7,0.9,1.3,0.9c0.9,0,1.9-0.6,3-1.9
							c1.1-1.2,2.2-3,3.2-5.4c1.1-2.3,2-5.1,2.8-8.4l-0.3,1.5L293,37z"/>
					</g>
				</g>
			</g>
		</g>
	</g>
</g>
</svg>
